<svg width="287" height="151" viewBox="0 0 287 151" fill="none" xmlns="http://www.w3.org/2000/svg">
<path d="M286.009 146.597C286.009 146.597 283.143 141.276 283.131 141.262C282.144 139.482 273.454 123.34 271.101 102.687L270.881 100.765C270.767 99.7205 270.001 98.8736 268.976 98.6459L267.072 98.2148C266.631 98.1191 263.058 97.3476 258.445 96.7232C258.741 95.8642 259.071 95.0704 259.442 94.3504L260.522 92.2664C260.693 91.9201 260.79 91.5253 260.79 91.1466C260.79 90.5462 260.566 89.9581 260.139 89.5018L258.566 87.7564C257.996 87.1289 253.494 83.6049 247.096 82.1657C247.114 82.1657 247.122 82.1657 247.136 82.1657C252.635 82.1657 257.12 77.6949 257.12 72.1927C257.12 66.6865 252.635 62.2066 247.136 62.2066C241.635 62.2066 237.161 66.6865 237.161 72.1927C237.161 76.6241 240.058 80.3809 244.05 81.6791C243.412 81.6127 242.759 81.5694 242.09 81.5653C240.209 81.5341 238.108 81.6791 235.82 81.9863C236.186 79.2782 236.442 76.5497 236.442 73.8294C236.442 33.1258 194.776 0 143.538 0C92.3007 0 50.6212 33.1258 50.6212 73.8294C50.6212 76.5849 50.8819 79.3446 51.2767 82.1001C48.6369 81.7095 46.2873 81.5341 44.1823 81.5653C35.2225 81.6882 28.4111 86.9707 27.6869 87.7564L26.1158 89.5018C25.6968 89.9581 25.4883 90.5462 25.4883 91.1466C25.4883 91.5253 25.5739 91.9201 25.75 92.2664L26.8309 94.3504C27.1974 95.0705 27.5227 95.8642 27.8208 96.7232C23.2181 97.3476 19.6709 98.1191 19.2227 98.2148L17.3263 98.6459C16.3009 98.8736 15.5285 99.7205 15.4196 100.765L15.1951 102.7C12.8373 123.405 4.14248 139.499 3.1625 141.276C3.13816 141.311 0.2929 146.597 0.2929 146.597C0.0915801 146.949 0 147.37 0 147.756C0 148.291 0.170168 148.809 0.501438 149.248C1.07858 150.015 2.06062 150.375 3.00429 150.157L8.84476 148.822C23.333 145.523 38.9803 146.725 39.1385 146.742C39.7115 146.781 52.8852 147.704 61.974 143.275C64.4797 142.057 66.5826 140.258 68.452 137.884C71.1562 138.64 86.4439 142.929 86.4439 142.929C99.6651 146.676 114.271 148.313 124.212 149.051C129.817 149.449 134.531 149.616 137.505 149.669C140.51 149.738 145.768 149.738 148.77 149.669C151.738 149.616 156.468 149.449 162.066 149.051C171.99 148.313 186.606 146.676 199.822 142.929C199.822 142.929 213.177 139.174 217.844 137.862C219.697 140.258 221.814 142.057 224.322 143.275C233.419 147.704 246.586 146.781 247.141 146.742C247.32 146.725 262.961 145.513 277.45 148.822L283.294 150.157C284.243 150.375 285.224 150.015 285.796 149.248C286.13 148.809 286.299 148.291 286.299 147.756C286.299 147.37 286.197 146.949 286.009 146.597Z" fill="#FFEBC7"/>
<path d="M53.0859 73.8293C53.0859 113.194 93.6505 145.215 143.542 145.215C193.428 145.215 234.002 113.194 234.002 73.8293C234.002 34.4823 193.428 2.44727 143.542 2.44727C93.6506 2.44727 53.0859 34.4823 53.0859 73.8293Z" fill="#892101"/>
<path d="M56.7344 73.8296C56.7344 111.019 95.6684 141.276 143.536 141.276C191.404 141.276 230.331 111.019 230.331 73.8296C230.331 36.649 191.404 6.39258 143.536 6.39258C95.6684 6.39257 56.7344 36.649 56.7344 73.8296Z" fill="#FFEBC7"/>
<path d="M256.297 128.578C256.176 128.051 254.266 119.069 254.266 109.505C254.266 103.678 254.975 97.6587 257.258 93.227L258.321 91.1464L256.74 89.4059C256.198 88.7875 249.893 84.1273 242.049 84.0176C232.977 83.8725 220.28 87.7512 197.228 94.7802L190.73 96.742C170.651 102.849 143.991 101.673 143.716 101.655H142.55C142.279 101.673 115.616 102.849 95.5408 96.742L89.0285 94.7802C65.9834 87.7512 53.2769 83.8725 44.2156 84.0176C36.3737 84.1273 30.07 88.7875 29.5139 89.4059L27.9378 91.1464L29.0062 93.227C31.2795 97.6587 31.9965 103.678 31.9965 109.505C31.9965 119.069 30.086 128.051 29.9672 128.578C29.9167 128.753 27.2891 136.862 27.2891 136.862L32.3672 133.926C32.3672 133.926 34.9084 132.469 34.8882 132.469C34.9274 132.451 38.6268 130.43 44.2709 130.43C50.6091 130.43 52.4692 130.745 87.1119 140.569C100.124 144.254 114.558 145.878 124.384 146.593C129.923 146.997 134.603 147.155 137.567 147.224C140.519 147.3 145.753 147.3 148.715 147.224C151.672 147.155 156.359 146.997 161.892 146.593C171.705 145.878 186.135 144.254 199.146 140.569C233.797 130.745 235.646 130.43 241.987 130.43C247.643 130.43 251.331 132.451 251.382 132.469C251.354 132.469 253.9 133.926 253.9 133.926L258.98 136.862C258.98 136.862 256.343 128.753 256.297 128.578Z" fill="#892101"/>
<path d="M72.0103 99.3577L72.1019 99.6287L72.1292 99.9146C72.1683 100.164 72.4272 102.863 72.4272 107.132C72.4272 112.945 70.5267 129.75 70.5267 129.75C68.8256 132.47 66.8303 138.183 60.8962 141.071C52.2969 145.251 39.3318 144.29 39.3318 144.29C39.1717 144.277 23.2755 143.031 8.29589 146.432L2.44531 147.757L5.29057 142.479C5.38525 142.298 15.1104 125.13 17.6444 102.963L17.8539 101.038L19.7545 100.621C20.2479 100.507 24.7581 99.5279 30.1594 98.9095C34.297 98.2379 43.6667 97.0009 52.2336 96.3475C67.6583 95.176 71.0786 96.5015 72.0103 99.3577Z" fill="#892101"/>
<path d="M70.6346 99.801L70.6749 99.9318L70.6899 100.064C70.7514 100.647 72.2934 113.152 68.4106 129.171L68.4016 129.232L68.3836 129.289C67.461 132.001 65.1586 136.972 60.1822 139.807C53.6417 143.527 39.4527 142.843 39.4527 142.843C39.2916 142.833 23.2162 141.539 7.96967 145.015L5.24219 145.633L6.56066 143.168C6.67038 142.988 16.5184 125.657 19.0786 103.136L19.1834 102.235L20.0728 102.038C20.2632 101.994 24.8366 100.989 30.3217 100.345C34.4893 99.6823 43.8429 98.4403 52.3424 97.7957C68.2265 96.5981 70.1109 98.2037 70.6346 99.801Z" fill="#FFEBC7"/>
<path d="M69.4258 100.199C68.2414 96.5442 38.3002 100.366 30.4858 101.616C24.9815 102.257 20.3415 103.279 20.3415 103.279C17.7128 126.327 11.3516 142.096 11.3516 142.096C24.3128 139.735 39.5663 141.579 39.5663 141.579C39.5663 141.579 52.8256 142.53 59.5596 138.7C64.1392 136.089 66.2825 131.518 67.1767 128.881C71.0514 112.884 69.4258 100.199 69.4258 100.199Z" fill="#892101"/>
<path d="M31.4609 134.821C31.4609 134.821 35.4675 137.993 41.6363 136.664C46.8132 135.536 53.3224 133.132 58.7631 136.537C58.7631 136.537 52.8843 135.058 46.8021 137.199C41.8872 138.928 35.1179 139.92 31.4609 134.821Z" fill="#FFEBC7"/>
<path d="M214.282 99.3577L214.189 99.6287L214.161 99.9146C214.127 100.164 213.867 102.863 213.867 107.132C213.867 112.945 215.761 129.75 215.761 129.75C217.463 132.47 219.463 138.183 225.397 141.071C233.996 145.251 246.963 144.29 246.963 144.29C247.12 144.277 263.021 143.031 277.995 146.432L283.845 147.757L280.993 142.479C280.912 142.298 271.183 125.13 268.651 102.963L268.446 101.038L266.538 100.621C266.044 100.507 261.538 99.5279 256.134 98.9095C251.992 98.2379 242.628 97.0009 234.067 96.3475C218.635 95.176 215.215 96.5015 214.282 99.3577Z" fill="#892101"/>
<path d="M215.658 99.801L215.622 99.9318L215.604 100.064C215.545 100.647 213.996 113.152 217.878 129.171L217.896 129.232L217.914 129.289C218.833 132.001 221.141 136.972 226.114 139.807C232.649 143.527 246.842 142.843 246.842 142.843C246.999 142.833 263.084 141.539 278.322 145.015L281.045 145.633L279.73 143.168C279.623 142.988 269.777 125.657 267.217 103.136L267.114 102.235L266.226 102.038C266.024 101.994 261.452 100.989 255.971 100.345C251.799 99.6823 242.453 98.4403 233.952 97.7957C218.065 96.5981 216.184 98.2037 215.658 99.801Z" fill="#FFEBC7"/>
<path d="M216.874 100.199C218.063 96.5442 247.996 100.366 255.807 101.616C261.313 102.257 265.96 103.279 265.96 103.279C268.582 126.327 274.948 142.096 274.948 142.096C261.987 139.735 246.737 141.579 246.737 141.579C246.737 141.579 233.47 142.53 226.739 138.7C222.162 136.089 220.009 131.518 219.116 128.881C215.237 112.884 216.874 100.199 216.874 100.199Z" fill="#892101"/>
<path d="M241.021 72.1919C241.021 68.6375 243.715 65.7995 247.135 65.7995C250.559 65.7995 253.238 68.6375 253.238 72.1919C253.238 75.7332 250.559 78.5763 247.135 78.5763C243.715 78.5763 241.021 75.7332 241.021 72.1919ZM239.609 72.1919C239.609 76.3425 242.923 79.7164 247.135 79.7164C251.353 79.7164 254.658 76.3425 254.658 72.1919C254.658 68.0373 251.353 64.6543 247.135 64.6543C242.923 64.6543 239.609 68.0373 239.609 72.1919ZM244.379 75.8782H245.773V72.7711H246.919C248.501 72.7711 248.549 73.4871 248.571 74.162C248.626 75.426 248.603 75.592 248.849 75.8782H250.285C249.995 75.4784 250.058 75.2629 249.995 74.0964C249.957 73.3462 249.876 72.4952 248.912 72.2978V72.2493C250.042 71.7971 250.193 71.0468 250.193 70.5331C250.193 68.5763 248.501 68.3617 247.719 68.3617H244.379V75.8782ZM245.773 69.4022H247.236C248.142 69.4022 248.768 69.6297 248.768 70.5331C248.768 71.0771 248.549 71.7316 247.385 71.7316H245.773V69.4022Z" fill="#892101"/>
<path d="M58.9375 73.8293C58.9375 109.716 96.8924 138.915 143.536 138.915C190.179 138.915 228.129 109.716 228.129 73.8293C228.129 37.9609 190.179 8.75195 143.536 8.75195C96.8924 8.75195 58.9375 37.9609 58.9375 73.8293Z" fill="#892101"/>
<path d="M143.541 137.341C122.025 137.341 60.4141 108.895 60.4141 73.8298C60.4141 38.7692 97.625 10.3379 143.541 10.3379C189.46 10.3379 226.657 38.7692 226.657 73.8298C226.657 108.895 165.059 137.341 143.541 137.341Z" fill="#FFEBC7"/>
<path d="M255.607 91.4971L255.083 90.9312C254.95 90.774 249.193 86.3766 242.018 86.2668C232.52 86.1278 218.71 90.6017 191.384 98.9077C170.872 105.143 143.89 103.945 143.618 103.941C143.594 103.941 142.663 103.941 142.642 103.941C142.365 103.945 115.371 105.143 94.8458 98.9077C67.5265 90.6017 53.7233 86.1278 44.2296 86.2668C37.0416 86.3766 31.3088 90.774 31.1596 90.9312L30.6328 91.4971L30.9923 92.204C37.4978 104.831 32.2021 128.95 32.1274 129.186L31.224 131.973L33.7611 130.503C33.8005 130.481 37.8996 128.161 44.2407 128.161C50.8749 128.161 52.7703 128.493 87.7121 138.396C100.536 142.034 114.798 143.626 124.519 144.346C130.021 144.741 134.663 144.902 137.594 144.974C140.689 145.025 142.047 145.039 142.705 145.025C142.834 145.052 143.418 145.039 143.545 145.039C144.223 145.039 145.57 145.025 148.658 144.974C151.608 144.902 156.242 144.741 161.734 144.346C171.434 143.626 185.711 142.034 198.545 138.396C233.477 128.493 235.369 128.161 241.988 128.161C248.351 128.161 252.44 130.481 252.484 130.503L255.025 131.973L254.118 129.186C254.044 128.95 248.752 104.831 255.248 92.204L255.607 91.4971Z" fill="#FFEBC7"/>
<path d="M250.582 90.8985C250.582 90.8985 247.999 88.3352 241.223 88.2343C231.786 88.0945 218.767 91.7625 191.725 99.985C170.77 106.351 143.562 105.785 143.562 105.785H142.697C142.697 105.785 115.478 106.351 94.5283 99.985C67.4808 91.7625 54.4712 88.0945 45.032 88.2343C38.2508 88.3352 35.6594 90.8985 35.6594 90.8985C42.4648 104.1 33.5625 128.767 33.5625 128.767C33.5625 128.767 37.028 125.437 43.8113 125.437C50.5905 125.437 53.2807 127.469 88.0219 137.314C112.672 144.298 142.697 143.892 142.697 143.892H143.562C143.562 143.892 173.568 144.298 198.227 137.314C232.97 127.469 235.649 125.437 242.446 125.437C249.232 125.437 252.699 128.767 252.699 128.767C252.699 128.767 243.785 104.1 250.582 90.8985Z" fill="#892101"/>
<path d="M205.705 79.9066L189.508 78.4766V80.2975H205.705V79.9066Z" fill="#892101"/>
<path d="M80.5625 79.9066L96.7688 78.4766V80.2975H80.5625V79.9066Z" fill="#892101"/>
<path d="M154.234 64.791V75.1991C154.234 80.1563 159.103 79.4585 159.103 75.3744V66.1295C159.103 61.3606 154.234 60.4875 154.234 64.791ZM156.614 78.1289C155.895 78.146 155.178 77.6163 154.827 76.4309C155.767 76.5456 156.614 76.4621 157.297 76.322C157.23 77.02 157.024 77.7131 156.614 78.1289ZM157.119 78.0454C157.294 77.7131 157.545 77.0724 157.556 76.2727C157.986 76.177 158.325 76.0753 158.571 75.9928C158.405 77.0724 157.802 77.8005 157.119 78.0454ZM158.625 75.2556C158.308 74.6894 157.695 74.3431 157.478 74.2292L157.472 66.7128C157.472 66.6734 157.466 66.6291 157.466 66.5676L156.18 66.4146V74.6894C156.665 74.6673 157.119 74.6372 157.398 74.5667C157.971 74.7952 158.286 75.2384 158.466 75.5928C157.024 76.1246 155.368 76.0582 154.737 75.9967C154.685 75.7902 154.651 75.5708 154.632 75.334V74.7207C154.927 74.7246 155.362 74.7207 155.794 74.6985V66.3663L154.632 66.2213V65.8264L157.436 66.1951C157.297 65.0317 156.714 63.9884 155.998 63.7516C155.373 63.5402 154.849 64.0416 154.632 64.9088V64.791C154.632 61.3686 158.498 61.7554 158.612 65.9845L158.625 75.2556Z" fill="#892101"/>
<path d="M127.234 66.1295V75.3744C127.234 79.4585 132.094 80.1563 132.094 75.1991V64.791C132.094 60.4875 127.234 61.3606 127.234 66.1295ZM127.765 75.9928C128.007 76.0753 128.353 76.177 128.77 76.2727C128.793 77.0724 129.043 77.7131 129.225 78.0454C128.529 77.8005 127.93 77.0724 127.765 75.9928ZM129.72 78.1289C129.305 77.7131 129.102 77.02 129.038 76.322C129.716 76.4621 130.558 76.5456 131.486 76.4309C131.148 77.6163 130.451 78.146 129.72 78.1289ZM131.703 64.9008C131.486 64.0417 130.951 63.5402 130.342 63.7516C129.631 63.9884 129.038 65.0317 128.893 66.1951L131.703 65.8264V66.2213L130.541 66.3663V74.6985C130.975 74.7207 131.407 74.7247 131.703 74.7207V75.334C131.677 75.5708 131.649 75.7903 131.609 75.9967C130.962 76.0582 129.305 76.1246 127.867 75.5929C128.046 75.2385 128.355 74.7952 128.928 74.5667C129.209 74.6372 129.666 74.6673 130.153 74.6894V66.4146L128.878 66.5676C128.867 66.6291 128.858 66.6734 128.858 66.7128V74.2292C128.631 74.3431 128.023 74.6894 127.713 75.2556L127.722 65.9845C127.825 61.7554 131.703 61.3687 131.703 64.791L131.703 64.9008Z" fill="#892101"/>
<path d="M194.714 46.3856C194.714 44.617 192.776 44.0469 192.526 43.6923C192.313 43.389 192.24 42.8978 192.24 42.4374V41.0909C191.688 38.9094 188.254 39.1068 187.007 39.3434V39.6637C187.007 40.4805 186.401 40.6115 185.575 40.6115C184.735 40.6115 182.118 40.6245 181.846 38.6495L181.653 37.0793C180.69 33.7758 174.826 34.798 174.625 34.8333V34.9692C174.625 35.7982 173.956 36.4649 173.126 36.4649C172.232 36.4649 168.892 35.7106 168.84 33.9641V33.1664C168.709 31.5601 167.736 30.2125 166.392 29.6857C165.109 29.9635 163.687 29.9889 162.225 29.7129C158.676 29.0582 155.956 26.8002 155.147 24.1583C154.027 24.0878 153.903 23.3908 153.903 23.3908C153.051 18.9814 149.587 15.5108 145.167 14.695C145.125 14.69 145.074 14.6758 145.026 14.6729C144.845 14.6366 144.659 14.6154 144.489 14.5933C144.316 14.5801 144.154 14.558 143.992 14.545C143.708 14.5318 143.434 14.5098 143.168 14.5098C143.145 14.5098 143.142 14.5188 143.136 14.5188C143.117 14.5188 143.106 14.5098 143.09 14.5098C142.814 14.5098 142.534 14.5318 142.276 14.545C142.093 14.558 141.938 14.5801 141.771 14.5933C141.587 14.6154 141.406 14.6366 141.233 14.6729C141.179 14.6758 141.124 14.69 141.091 14.695C136.673 15.5108 133.202 18.9814 132.357 23.3908C132.357 23.3908 132.228 24.0878 131.114 24.1583C130.309 26.8002 127.591 29.0582 124.024 29.7129C122.574 29.9889 121.155 29.9635 119.864 29.6857C118.522 30.2125 117.546 31.5601 117.407 33.1664V33.9641C117.358 35.7106 114.014 36.4649 113.109 36.4649C112.295 36.4649 111.62 35.7982 111.62 34.9692V34.8333C111.422 34.798 105.555 33.7758 104.587 37.0793L104.404 38.6495C104.125 40.6245 101.519 40.6115 100.671 40.6115C99.8468 40.6115 99.2406 40.4805 99.2406 39.6637V39.3434C97.9937 39.1068 94.5692 38.9094 94.0071 41.0909V42.4374C94.0071 42.8978 93.9287 43.3891 93.7202 43.6923C93.4795 44.0469 91.5397 44.617 91.5397 46.3856C91.5397 47.6838 91.5234 49.1331 91.5234 50.3346C91.5234 52.0237 92.3776 52.3217 92.3776 53.2211C92.3776 54.1256 92.3776 79.6704 92.3776 79.6704C92.3776 80.1396 92.6526 80.2979 93.12 80.31L118.522 82.0482C118.956 82.9436 121.184 82.864 121.184 82.864C121.678 82.864 122.683 82.7372 122.707 82.7372C123.549 82.9387 129.24 84.1493 133.858 83.4614C133.858 83.4614 137.617 84.5622 143.09 84.5622C143.106 84.5622 143.117 84.5622 143.136 84.5622C143.142 84.5622 143.145 84.5622 143.168 84.5622C148.631 84.5622 152.405 83.4614 152.405 83.4614C157.024 84.1493 162.698 82.9387 163.562 82.7372C163.574 82.7372 164.592 82.864 165.067 82.864C165.067 82.864 167.285 82.9436 167.736 82.0482L193.131 80.31C193.598 80.2979 193.872 80.1396 193.872 79.6704C193.872 79.6704 193.872 54.1256 193.872 53.2211C193.872 52.3218 194.724 52.0237 194.724 50.3346C194.724 49.1331 194.714 47.6838 194.714 46.3856ZM117.1 36.4831C117.563 36.2504 118.201 35.6803 118.394 35.197C118.786 34.223 118.563 33.4868 118.96 32.5077C119.425 31.3575 120.75 31.0161 121.876 31.1178C120.386 31.696 119.482 32.2308 119.482 33.9078V40.3918C119.438 41.3487 119.495 42.4153 119.438 42.7616C119.335 43.5865 117.211 44.1566 117.1 43.1735L117.1 36.4831ZM116.887 46.4681V46.5093C116.762 46.5093 116.623 46.5215 116.494 46.5738C115.759 46.86 114.901 47.4742 114.901 48.9961L114.909 54.7128C114.507 54.9364 114.241 55.1478 114.044 55.3281V47.316C114.044 45.2756 116.887 44.5737 116.887 46.4681ZM99.7884 50.8079C99.1941 51.0367 98.734 51.9311 98.734 52.8143V57.6265C98.0339 58.0042 97.6531 58.3507 97.4627 58.6013V51.8444C97.4627 50.1675 99.8237 49.2288 100.067 50.7607C99.9879 50.7607 99.8911 50.7607 99.7884 50.8079ZM100.098 57.7404V58.531C99.5225 58.3949 98.5465 58.4786 97.8386 58.6931C98.1649 58.3728 98.5465 58.131 98.7882 57.999C99.1941 57.8854 99.6434 57.8068 100.098 57.7404ZM100.098 58.9297V61.3389C99.4118 61.1717 98.1317 61.3167 97.4627 61.645V59.2853C97.4627 58.7152 100.098 58.6265 100.098 58.9297ZM100.098 61.7558V62.2857C99.4118 61.6764 98.1317 61.9916 97.4627 62.9101V62.0761C97.4627 61.4969 100.098 61.4175 100.098 61.7558ZM100.084 63.3482C99.9879 63.3432 99.8911 63.3432 99.7884 63.3793C99.1941 63.5889 98.734 64.4672 98.734 65.3444V69.938L97.4627 69.9824V64.2395C97.4627 62.5404 99.8911 61.6985 100.084 63.3482ZM97.5354 70.2936L98.734 70.2633H98.7641L99.8911 70.2272C98.907 71.759 99.8185 72.72 100.214 73.031L98.0349 73.0583C96.8031 72.299 97.07 71.1226 97.5354 70.2936ZM100.435 70.2111L101.937 70.1667C100.922 71.7328 101.883 72.7057 102.28 72.9959L100.991 73.023C99.6857 72.2505 99.9555 71.048 100.435 70.2111ZM102.496 70.1486L105.13 70.0742C104.051 71.7016 105.144 72.6977 105.505 72.9526L103.055 72.9959C101.721 72.2284 102.001 71.0046 102.496 70.1486ZM105.198 56.8107V57.5308C104.57 57.3858 103.487 57.4916 102.764 57.7373C103.071 57.4382 103.412 57.2014 103.659 57.0686V57.0906C104.125 56.9677 104.663 56.8722 105.198 56.8107ZM104.805 49.5268C104.176 49.7818 103.648 50.7294 103.648 51.6328L103.659 56.6567C103.04 56.99 102.661 57.2971 102.449 57.5308V50.4837C102.449 48.7071 105.13 47.6415 105.192 49.4925C105.073 49.4785 104.95 49.4835 104.805 49.5268ZM105.198 57.9297V60.7114C104.474 60.5442 103.147 60.6803 102.449 61.0176V58.2146C102.764 57.7373 105.028 57.6618 105.198 57.9297ZM105.198 61.0971V61.6421C104.474 61.0619 103.162 61.4134 102.449 62.3441V61.3691C102.764 60.8907 105.028 60.8424 105.198 61.0971ZM105.187 62.755C105.071 62.7469 104.95 62.7469 104.805 62.7822C104.176 63.0188 103.648 63.9365 103.648 64.8488L103.659 69.7891L102.449 69.8233V63.7209C102.449 61.9744 105.039 61.0357 105.187 62.755ZM105.696 70.0519L107.383 70.0086C106.285 71.6765 107.445 72.6756 107.785 72.9264L106.307 72.9436C104.905 72.167 105.187 70.925 105.696 70.0519ZM107.957 69.9824L110.79 69.9027C109.623 71.6492 110.924 72.6756 111.238 72.878L108.607 72.9132C107.144 72.1317 107.445 70.8596 107.957 69.9824ZM110.378 48.132C109.661 48.3998 109.078 49.4041 109.078 50.3608L109.089 55.6826C108.568 55.9677 108.208 56.2266 107.987 56.4471V48.9961C107.987 47.0955 110.815 45.9555 110.815 48.0091V48.0877C110.686 48.0654 110.541 48.0745 110.378 48.132ZM110.815 55.7976V56.5257C110.117 56.3766 108.902 56.5075 108.158 56.8107C108.467 56.4994 108.831 56.2577 109.093 56.1127C109.623 55.9768 110.218 55.872 110.815 55.7976ZM110.815 56.9205V59.9873C110.047 59.8202 108.7 59.9732 107.987 60.3167V57.2408C108.283 56.7703 110.582 56.6657 110.815 56.9205ZM110.815 60.3821V60.8163C110.047 60.2591 108.715 60.6541 107.987 61.6149V60.6671C108.283 60.1847 110.582 60.1151 110.815 60.3821ZM110.815 62.0761C110.678 62.045 110.531 62.0541 110.378 62.1065C109.661 62.3441 109.078 63.331 109.078 64.2869L109.089 69.6179L107.987 69.6581V63.045C107.987 61.1768 110.706 60.1675 110.815 62.0761ZM111.383 69.8817L113.42 69.8233C112.19 71.6492 113.664 72.6976 113.901 72.8427L112.076 72.8699C110.541 72.0844 110.84 70.7852 111.383 69.8817ZM114.02 69.8112L116.915 69.7367C115.567 71.7328 117.453 72.7944 117.453 72.8035L114.764 72.8336C113.15 72.036 113.474 70.7066 114.02 69.8112ZM116.548 61.5141C115.818 61.7729 114.901 62.1809 114.901 63.7692L114.909 69.4385L114.044 69.4688V62.2777C114.044 60.5089 116.766 59.5219 116.919 61.479C116.808 61.4749 116.685 61.479 116.548 61.5141ZM116.887 55.9153V59.0698C116.167 58.9258 114.711 59.0747 114.044 59.387V56.14C114.433 55.7662 116.42 55.7309 116.887 55.9153ZM114.149 55.7662C114.45 55.4409 114.798 55.2002 115.088 55.0381C115.556 54.9242 116.345 54.8357 116.887 54.7611V55.4721C116.205 55.3322 114.833 55.4721 114.149 55.7662ZM116.887 59.5129V60.0487C116.174 59.4737 114.728 59.7496 114.044 60.6227V59.7113C114.433 59.3427 116.42 59.3154 116.887 59.5129ZM107.822 37.2153C107.822 37.2153 107.822 36.206 108.902 35.908C108.902 35.908 109.806 35.7236 110.908 35.8556C110.908 35.8556 111.407 37.8518 113.737 37.4529V38.154L107.822 40.1633V37.2153ZM105.4 37.9051C105.4 37.2646 106.166 36.3995 107.434 36.1497C106.806 36.8426 106.862 37.5759 106.862 37.5759L106.806 40.5368C106.343 40.7212 105.972 40.8531 105.348 41.0022C105.348 39.8038 105.4 38.5668 105.4 37.9051ZM105.89 41.8221C108.871 40.831 111.895 39.8258 114.99 38.7914L116.338 38.3483V38.7693C111.365 40.4533 98.1407 44.912 95.807 45.7016C95.943 45.465 96.1001 45.2756 96.228 45.1478L99.3 44.0871C99.4118 44.0469 99.5083 44.0116 99.5799 43.9896C101.658 43.2703 103.768 42.5513 105.89 41.8221ZM116.338 39.2739V39.9366L95.4586 46.75C95.4838 46.5697 95.5261 46.3855 95.5845 46.2314L114.31 39.9446L116.338 39.2739ZM98.6583 40.4281C98.7882 41.7697 100.697 41.537 101.519 41.4494C101.588 42.0244 101.588 42.4153 101.588 42.4153L96.8052 44.0378C96.8052 43.8625 96.8334 42.6913 96.8334 41.6125C96.8334 41.0808 98.5506 39.5146 98.6583 40.4281ZM95.4182 78.7791C94.5632 78.7488 93.6891 78.5252 93.6891 77.3799L93.7835 52.7648C93.7835 51.4354 92.6476 51.2602 92.6476 49.8915C92.6476 48.7424 92.6476 48.1149 92.6476 46.9082C92.6476 46.2314 93.1309 45.604 93.9539 45.065C94.6136 44.6038 95.1614 43.9462 95.1614 43.345C95.1614 42.8887 95.1917 42.5201 95.1917 41.8221C95.1917 41.1724 95.9058 40.5983 96.9623 40.4662C96.4124 40.6556 96.0366 41.1723 96.0366 41.6468C96.0366 42.7526 96.228 43.92 95.5845 44.5737C94.8089 45.342 94.3194 45.6442 94.3194 46.7057C94.3194 47.3855 94.3194 48.413 94.3194 49.264C94.3194 50.9057 95.4182 50.6157 95.4182 52.1293V78.7791ZM116.338 40.6206V41.2922L95.5129 47.992C95.4615 47.7583 95.4423 47.5357 95.4294 47.3332L116.338 40.6206ZM116.222 42.1121C116.222 42.1121 116.222 42.8716 116.222 43.2703C116.222 43.7356 116.093 44.3802 116.582 44.5737C115.505 44.5213 113.474 45.2362 113.474 47.3736V69.4778L111.383 69.5564V47.9175H111.37C111.325 45.2362 107.543 46.5215 107.471 49.0404L107.447 49.0575V69.662L105.713 69.7186V49.4664C105.678 46.9204 101.96 48.0877 101.96 50.527V69.8374L100.579 69.8817V50.8564H100.569C100.44 48.4612 97.0116 49.4925 97.0116 51.8787V69.9824V70.3108V70.3157H96.9976C96.0498 71.8023 96.8947 72.7381 97.2856 73.0714H97.0116C96.6078 73.1067 96.2783 73.2899 96.0609 73.5539V52.0538C96.0609 50.0144 95.4999 50.7293 95.4999 48.8207C96.3841 48.5086 116.222 42.1121 116.222 42.1121ZM96.6078 78.8274C96.4013 78.8152 96.228 78.8152 96.0609 78.8092V75.0586C96.1907 75.2166 96.3681 75.3526 96.6078 75.4573V78.8274ZM100.126 78.9723C99.4621 78.9462 98.8517 78.9241 98.2967 78.9018V78.196C98.2967 77.3226 98.7641 76.4534 99.3412 76.2651C99.4862 76.2207 99.6281 76.2207 99.7381 76.2612C99.4198 75.4573 98.0731 75.9932 98.0731 77.0728V78.8847C97.9704 78.8847 97.8808 78.8847 97.768 78.8756V77.0728C97.768 75.4311 99.9988 74.8913 100.117 76.5159C100.12 76.532 100.126 76.532 100.126 76.546V78.9723ZM104.805 79.1658C104.125 79.1476 103.445 79.1163 102.781 79.0862V78.2795C102.781 77.3709 103.302 76.4625 103.952 76.2702C104.108 76.2207 104.242 76.2259 104.371 76.2651C104.019 75.4534 102.496 76.0285 102.496 77.1374V79.0771C102.377 79.073 102.255 79.0639 102.145 79.0639V77.1374C102.145 75.4755 104.702 74.8693 104.805 76.5501V76.5592V79.1658ZM109.996 76.6741V79.3803C109.266 79.3632 108.523 79.3228 107.759 79.2976V78.486C107.759 77.5332 108.331 76.5813 109.048 76.3738C109.219 76.3175 109.378 76.3224 109.522 76.3738C109.186 75.3959 107.404 76.0194 107.404 77.222V79.2787C107.267 79.2787 107.131 79.2665 107 79.2665V77.2925C107 75.4877 109.965 74.7907 109.996 76.669C109.996 76.669 109.996 76.669 109.996 76.6741ZM116.262 76.822V79.6392C115.505 79.6089 114.642 79.5736 113.703 79.5425L113.699 78.5866C113.699 77.5503 114.362 76.511 115.163 76.2954C115.294 76.256 115.406 76.248 115.505 76.256C114.958 75.4877 113.245 76.0415 113.245 77.222V79.5163C113.065 79.5122 112.874 79.5031 112.688 79.4992V77.2349C112.688 75.3748 115.966 74.8179 116.235 76.5984C116.244 76.6116 116.248 76.6116 116.262 76.6246V76.7696C116.262 76.7919 116.262 76.8049 116.262 76.822ZM117.937 74.8913L96.6078 74.9266C96.4314 74.7785 96.3206 74.558 96.3116 74.3253L117.937 74.2517V74.8913ZM117.937 73.6585L96.4124 73.852C96.5351 73.6636 96.7165 73.5005 97.0116 73.4349L117.937 73.2517V73.6585ZM117.937 72.7552C116.832 71.9303 117.044 70.5927 117.435 69.6843V69.4205V69.4073H117.437V59.4605H117.446C117.446 59.4433 117.437 59.4384 117.437 59.4384V55.8448H117.446C117.446 55.8367 117.437 55.8367 117.437 55.8277V46.3856C117.437 45.5083 117.214 44.9644 116.887 44.6874C117.014 44.7268 117.137 44.762 117.265 44.762C117.978 45.5817 117.937 46.2092 117.937 47.0169V72.7552ZM120.645 80.6885C118.794 80.6885 118.626 79.4859 118.602 78.218V47.0169C118.602 46.2455 118.586 45.5083 118.135 44.6702C118.524 44.5916 119.177 44.3893 119.66 44.0116C120.191 44.6612 120.645 45.4901 120.645 47.1228L120.645 80.6885ZM122.479 80.3502C122.014 80.6402 121.524 80.6916 121.259 80.7007V47.1228C121.259 45.6401 121.121 44.6874 120.353 43.367V34.5301C120.353 32.824 121.276 32.1613 121.751 32.1523C121.751 33.0254 121.761 37.7733 121.761 38.9395C121.761 40.142 122.051 41.3174 122.479 42.2571V80.3502ZM163.395 35.9785C161.568 34.6803 158.054 34.4829 154.988 34.8725C154.964 34.3459 154.892 33.8806 154.811 33.5079C157.417 33.2279 161.817 33.7888 163.395 34.9653L163.395 35.9785ZM153.137 25.4828C155.283 29.0108 158.883 31.0685 163.393 31.972V32.6568C158.361 31.6345 154.624 29.3452 153.001 26.2511C153.064 25.9754 153.109 25.7194 153.137 25.4828ZM163.393 33.381L163.373 34.1262C161.62 33.1836 158.11 32.56 154.736 32.6659C154.563 32.5873 151.766 30.3323 150.91 29.7049C151.805 29.1729 152.36 28.2474 152.711 27.2907C155.822 31.972 161.62 32.9287 163.393 33.381ZM153.748 56.2357C153.587 56.1519 153.372 56.0564 153.096 55.9677C153.327 55.3755 153.152 54.2838 152.933 53.1124C152.887 52.8042 152.794 52.5111 152.794 52.1202V42.3225C152.906 38.9839 150.55 39.2386 150.55 42.248V51.8878C150.55 53.8265 150.981 54.9857 151.573 55.7048C151.384 55.7048 151.206 55.7138 151.011 55.731C150.673 54.0994 149.866 52.9453 149.659 52.6784C149.818 52.625 150.052 52.5856 150.267 52.5765L150.243 52.1114C150.074 52.081 149.846 52.1072 149.612 52.1858V51.2038C149.778 51.1545 150.002 51.094 150.243 51.0808V50.6157C150.074 50.5986 149.846 50.6248 149.612 50.6902V49.7071C149.778 49.6588 150.002 49.6015 150.243 49.5792V49.124C150.063 49.1058 149.846 49.1411 149.612 49.2156V48.2327C149.778 48.1671 150.002 48.1149 150.243 48.0877V47.6364C150.063 47.6193 149.846 47.6616 149.612 47.7371V46.7451C149.761 46.6886 149.991 46.6131 150.243 46.5789V46.1358C150.063 46.1358 149.846 46.175 149.612 46.2455V45.2585C149.761 45.188 149.991 45.1216 150.243 45.0913V44.6391C150.063 44.6391 149.844 44.6874 149.612 44.767V43.7751C149.761 43.7084 149.991 43.6299 150.243 43.5946V43.1476C150.063 43.1616 149.831 43.213 149.612 43.2846V42.2833C149.761 42.2219 149.984 42.1422 150.243 42.0901C150.26 41.958 150.267 41.813 150.286 41.6429C150.152 41.6559 149.991 41.6821 149.831 41.7213C150.513 40.0847 150.667 38.3484 150.705 37.4963C151.72 37.317 152.977 37.4127 153.881 37.8296C154.113 38.9003 154.092 40.3475 153.236 41.9197V53.3531C153.236 53.3531 153.636 54.5646 153.748 56.2357ZM152.664 53.4628C152.906 54.476 152.996 55.7138 152.45 55.719C152.511 55.451 152.711 54.5203 152.664 53.4628ZM152.502 51.7697C152.343 51.4406 152.107 51.1988 151.984 51.0808L151.976 44.2835C151.964 43.0337 151.558 41.813 151.027 41.4283C151.336 39.8793 152.502 40.1511 152.502 42.1645V51.7697ZM151.79 51.2733C152.187 51.647 152.405 52.1959 152.502 52.5987C152.238 52.4315 151.667 52.1334 150.947 52.0014V51.1374C151.259 51.1726 151.538 51.2209 151.79 51.2733ZM152.36 52.9713C152.43 53.766 152.38 55.008 152.139 55.6041C151.608 55.2747 151.049 54.1297 150.954 52.4315C151.23 52.5111 151.845 52.6864 152.36 52.9713ZM153.779 56.9677C153.779 57.0906 153.779 57.2488 153.779 57.3807C153.779 57.4916 153.767 57.5781 153.762 57.693C153.372 57.4644 152.405 57.0263 151.158 57.135C151.158 56.8722 151.143 56.6224 151.109 56.3978C151.437 56.3322 152.591 56.2266 153.779 56.9677ZM133.875 55.719C133.34 55.7138 133.422 54.4851 133.677 53.4628C133.629 54.5203 133.824 55.451 133.875 55.719ZM133.836 52.5987C133.935 52.1959 134.148 51.647 134.547 51.2733C134.805 51.2209 135.075 51.1726 135.4 51.1374V52.0014C134.677 52.1334 134.1 52.4315 133.836 52.5987ZM135.368 52.4315C135.291 54.1297 134.735 55.2747 134.187 55.6041C133.957 55.008 133.908 53.766 133.977 52.9713C134.492 52.6864 135.096 52.5111 135.368 52.4315ZM134.362 44.2835L134.338 51.0808C134.215 51.1988 133.983 51.4406 133.83 51.7697V42.1645C133.83 40.1511 135.008 39.8793 135.312 41.4283C134.781 41.813 134.362 43.0337 134.362 44.2835ZM135.22 56.3978C135.181 56.6224 135.172 56.8722 135.172 57.135C133.935 57.0263 132.96 57.4644 132.579 57.693C132.562 57.5781 132.553 57.4916 132.553 57.3807C132.553 57.2488 132.553 57.0906 132.553 56.9677C133.752 56.2266 134.895 56.3322 135.22 56.3978ZM134.764 55.7047C135.361 54.9857 135.777 53.8265 135.777 51.8877V42.248C135.777 39.2386 133.439 38.9838 133.54 42.3225V52.1202C133.54 52.5111 133.456 52.8042 133.402 53.1123C133.186 54.2837 133.005 55.3755 133.236 55.9677C132.96 56.0564 132.746 56.1519 132.586 56.2356C132.702 54.5646 133.107 53.3531 133.107 53.3531V41.9196C132.249 40.3475 132.213 38.9003 132.452 37.8296C133.355 37.4127 134.604 37.317 135.628 37.4962C135.668 38.3483 135.831 40.0846 136.502 41.7212C136.342 41.682 136.185 41.6558 136.043 41.6428C136.066 41.813 136.081 41.958 136.094 42.09C136.343 42.1422 136.567 42.2218 136.728 42.2833V43.2845C136.495 43.2129 136.282 43.1616 136.094 43.1476V43.5945C136.342 43.6298 136.567 43.7084 136.728 43.775V44.7669C136.495 44.6873 136.274 44.639 136.094 44.639V45.0912C136.342 45.1215 136.567 45.188 136.728 45.2585V46.2455C136.495 46.1749 136.274 46.1357 136.094 46.1357V46.5788C136.342 46.613 136.567 46.6885 136.728 46.745V47.737C136.495 47.6615 136.271 47.6192 136.094 47.6363V48.0877C136.342 48.1149 136.567 48.1671 136.728 48.2327V49.2155C136.495 49.1411 136.271 49.1058 136.094 49.124V49.5791C136.33 49.6014 136.561 49.6588 136.728 49.707V50.6901C136.495 50.6247 136.256 50.5985 136.094 50.6157V51.0808C136.33 51.094 136.561 51.1544 136.728 51.2037V52.1858C136.495 52.1072 136.256 52.081 136.094 52.1113L136.066 52.5764C136.288 52.5855 136.515 52.6249 136.673 52.6783C136.475 52.9453 135.655 54.0993 135.326 55.7309C135.131 55.7138 134.942 55.7047 134.764 55.7047ZM133.677 33.4868C133.808 33.6881 133.977 33.8806 134.226 34.0386C133.319 34.1262 132.443 34.3379 132.063 34.521C132.094 34.2059 132.096 34.0386 132.202 33.6791C132.586 33.5301 133.178 33.4596 133.677 33.4868ZM132.379 33.0959C132.456 32.7968 133.003 32.3759 133.342 32.13C133.319 32.3445 133.334 32.6347 133.422 32.9548C133.042 32.9548 132.673 33.0254 132.379 33.0959ZM143.168 23.0183C141.861 23.0183 140.792 24.0878 140.792 25.3912C140.792 25.786 140.887 26.1404 141.058 26.4657C141.058 26.4879 141.056 26.5051 141.056 26.5232C140.587 26.8876 139.823 27.3833 139.49 27.5364C137.774 20.0431 148.38 19.6955 146.847 27.5364C146.51 27.3833 145.754 26.8876 145.288 26.5232C145.288 26.5051 145.279 26.4919 145.279 26.4657C145.445 26.1404 145.538 25.786 145.538 25.3912C145.538 24.0878 144.467 23.0183 143.168 23.0183ZM143.168 21.008C140.817 21.008 138.368 22.8118 138.465 26.3479C138.443 26.3207 138.015 25.5925 138.021 24.3166C138.021 23.68 138.138 23.0655 138.36 22.5086C138.54 22.0262 138.792 21.5689 139.108 21.1702C139.263 20.9686 139.432 20.7712 139.619 20.6041C139.619 20.6041 139.625 20.5959 139.634 20.587C139.814 20.4156 139.995 20.2667 140.187 20.1256C140.201 20.1217 140.216 20.1035 140.216 20.1035C140.415 19.9715 140.622 19.8405 140.832 19.7448C140.868 19.7178 140.901 19.7127 140.935 19.6955C141.124 19.5949 141.336 19.5072 141.54 19.4327C141.565 19.4247 141.582 19.4195 141.602 19.4146C141.815 19.341 142.047 19.2968 142.281 19.2574C142.333 19.2574 142.389 19.2273 142.44 19.2273C142.679 19.1959 142.914 19.1778 143.168 19.1778C143.404 19.1778 143.642 19.1959 143.89 19.2273C143.942 19.2273 143.993 19.2574 144.033 19.2574C144.281 19.2968 144.511 19.3409 144.733 19.4146C144.745 19.4195 144.761 19.4247 144.784 19.4327C144.987 19.5072 145.203 19.5949 145.408 19.6955C145.436 19.7127 145.465 19.7178 145.498 19.7448C145.715 19.8405 145.919 19.9715 146.121 20.1035C146.121 20.1035 146.13 20.1217 146.139 20.1256C146.339 20.2667 146.527 20.4156 146.704 20.587C146.712 20.5959 146.718 20.6041 146.718 20.6041C146.907 20.7712 147.073 20.9686 147.229 21.1702C147.543 21.5689 147.789 22.0262 147.977 22.5086C148.185 23.0655 148.322 23.68 148.322 24.3166C148.322 25.5925 147.89 26.3207 147.869 26.3479C147.966 22.8118 145.529 21.008 143.168 21.008ZM143.168 26.2986L152.222 31.6527C152.26 31.7665 152.275 31.9287 152.297 32.0867L143.168 26.8565L134.049 32.0867C134.058 31.9287 134.066 31.7665 134.109 31.6527L143.168 26.2986ZM154.133 33.6791C154.234 34.0386 154.234 34.2059 154.269 34.521C153.903 34.3379 153.001 34.1262 152.107 34.0386C152.354 33.8806 152.534 33.6881 152.664 33.4868C153.159 33.4596 153.748 33.5301 154.133 33.6791ZM152.917 32.9548C153.001 32.6347 153.001 32.3445 152.996 32.13C153.327 32.3759 153.876 32.7968 153.954 33.0959C153.662 33.0254 153.302 32.9548 152.917 32.9548ZM149.076 42.0678V43.0337C148.857 42.9722 148.444 42.8363 147.992 42.7084V43.235C148.299 43.3188 148.765 43.4415 149.076 43.5826V44.5565C148.857 44.478 148.444 44.3581 147.992 44.2181V44.7488C148.299 44.8375 148.765 44.9514 149.076 45.0912V46.0652C148.857 45.9998 148.444 45.8688 147.992 45.749V46.2587C148.299 46.3513 148.765 46.4681 149.076 46.613V47.579C148.857 47.5217 148.444 47.3855 147.992 47.2597V47.7722C148.299 47.8589 148.765 47.9788 149.076 48.132V49.0928C148.857 49.0353 148.444 48.9045 147.992 48.7855V49.2912C148.299 49.3779 148.765 49.4966 149.076 49.6406V50.6157C148.857 50.549 148.444 50.4092 147.992 50.2902V50.8079C148.299 50.8915 148.765 51.0105 149.076 51.1646V52.1293C148.857 52.0589 148.444 51.9228 147.992 51.805V52.3217C148.322 52.4053 148.811 52.5414 149.115 52.6864C149.778 53.7349 150.167 54.7128 150.366 55.6041C148.817 55.2396 146.819 55.0381 144.784 54.9636C146.488 54.4197 147.523 52.8838 147.523 49.9831V42.4182C147.523 36.9393 144.078 37.0973 143.684 39.3968C143.395 39.3433 142.94 39.3433 142.642 39.3968C142.242 37.0973 138.822 36.9393 138.822 42.4182V49.9831C138.822 52.8838 139.847 54.4197 141.548 54.9636C139.513 55.0381 137.502 55.2396 135.968 55.6041C136.168 54.7128 136.561 53.7349 137.222 52.6864C137.528 52.5414 138.015 52.4053 138.347 52.3217V51.805C137.89 51.9228 137.47 52.0589 137.265 52.1293V51.1646C137.568 51.0105 138.021 50.8915 138.347 50.8079V50.2902C137.89 50.4092 137.47 50.5491 137.265 50.6157V49.6406C137.568 49.4966 138.021 49.3779 138.347 49.2912V48.7855C137.89 48.9045 137.47 49.0353 137.265 49.0928V48.132C137.568 47.9788 138.021 47.8589 138.347 47.7722V47.2597C137.89 47.3855 137.47 47.5217 137.265 47.579V46.613C137.568 46.4681 138.021 46.3513 138.347 46.2587V45.749C137.89 45.8688 137.47 45.9908 137.265 46.0652V45.0912C137.568 44.9514 138.021 44.8375 138.347 44.7488V44.2181C137.89 44.3581 137.47 44.478 137.265 44.5565V43.5826C137.568 43.4376 138.021 43.3188 138.347 43.235V42.7084C137.89 42.8363 137.47 42.9722 137.265 43.0337V42.0678C137.568 41.9238 138.021 41.7969 138.347 41.7212V41.2037C137.874 41.3174 137.449 41.4675 137.25 41.5238C137.111 41.2299 136.321 39.2961 136.397 37.303C136.466 36.7902 136.728 35.9301 137.392 35.5051C137.732 31.4361 141.216 29.5155 141.604 31.3575H141.602C141.008 31.3575 140.52 31.828 140.52 32.4241C140.52 32.692 140.622 32.9115 140.781 33.1081C140.792 33.1664 140.52 34.2502 139.387 34.2502C138.598 34.2502 137.974 34.8867 137.974 35.6673C137.974 36.4528 138.598 37.0793 139.387 37.0793C140.242 37.0793 141.771 36.4257 143.168 36.4257C144.558 36.4257 146.089 37.0793 146.948 37.0793C147.733 37.0793 148.363 36.4528 148.363 35.6673C148.363 34.8867 147.733 34.2502 146.948 34.2502C145.806 34.2502 145.531 33.1664 145.562 33.1081C145.709 32.9115 145.806 32.692 145.806 32.4241C145.806 31.828 145.327 31.3575 144.733 31.3575H144.726C145.123 29.5155 148.603 31.4361 148.925 35.5051C149.612 35.9301 149.866 36.7902 149.934 37.303C150.011 39.2961 149.215 41.2299 149.093 41.5238C148.881 41.4675 148.46 41.3174 147.992 41.2037V41.7212C148.299 41.7969 148.765 41.9238 149.076 42.0678ZM142.875 50.7607V43.8404H140.099V50.4575C139.92 50.5623 139.634 50.7828 139.412 51.094C139.366 50.7425 139.358 50.387 139.358 49.9831V42.2612C139.358 37.6241 142.114 37.7248 142.17 39.9708C140.974 40.4442 140.101 41.7394 140.099 43.2623H142.875V39.8964H143.456V43.2622H146.236C146.229 41.7394 145.365 40.4442 144.154 39.9708C144.218 37.7248 146.969 37.6241 146.969 42.2612L146.981 49.9831C146.981 50.3869 146.948 50.7425 146.916 51.094C146.704 50.7828 146.413 50.5623 146.236 50.4575V43.8404H143.456V50.7607C144.432 50.7687 145.369 50.8564 146.236 51.0105C146.444 51.2038 146.596 51.4183 146.704 51.6328C144.795 51.2209 141.49 51.2169 139.619 51.647C139.737 51.4406 139.881 51.2118 140.099 51.0105C140.965 50.8564 141.894 50.7687 142.875 50.7607ZM146.685 52.1334C146.145 53.8798 144.899 54.7177 143.168 54.7177C141.447 54.7177 140.201 53.8798 139.667 52.1547C140.911 51.7075 145.32 51.6943 146.685 52.1334ZM136.634 35.0517C136.598 35.2764 136.581 35.508 136.552 35.7508C136.42 35.8989 136.302 36.1012 136.194 36.3601C135.837 36.0751 135.602 35.7106 135.402 35.3026C135.747 35.3026 136.342 35.197 136.634 35.0517ZM135.17 34.776C135.051 34.4829 135.008 34.1615 134.953 33.8191C135.528 33.8502 136.194 33.7234 136.971 33.4373C136.945 33.5211 136.835 33.9249 136.708 34.4556C136.431 34.6308 135.528 34.8201 135.17 34.776ZM145.138 36.3119C144.374 36.1235 143.783 36.0309 143.168 36.0309C142.543 36.0309 141.964 36.1235 141.196 36.3119C141.512 35.8424 142.449 35.4346 143.168 35.4346C143.875 35.4346 144.818 35.8424 145.138 36.3119ZM144.009 32.4241C144.009 32.0384 144.335 31.7141 144.733 31.7141C145.132 31.7141 145.452 32.0384 145.452 32.4241C145.452 32.824 145.132 33.1483 144.733 33.1483C144.335 33.1483 144.009 32.824 144.009 32.4241ZM141.602 33.1483C141.205 33.1483 140.874 32.824 140.874 32.4241C140.874 32.0384 141.205 31.7141 141.602 31.7141C142.006 31.7141 142.322 32.0384 142.322 32.4241C142.322 32.824 142.006 33.1483 141.602 33.1483ZM140.045 36.4831C140.06 36.4831 140.068 36.4831 140.082 36.4831C139.902 36.6493 139.65 36.7419 139.387 36.7419C138.792 36.7419 138.32 36.2553 138.32 35.6673C138.32 35.0842 138.792 34.5965 139.387 34.5965C139.474 34.5965 139.549 34.5996 139.625 34.6188C139.304 34.776 139.07 35.1093 139.07 35.5052C139.07 36.0348 139.502 36.4831 140.045 36.4831ZM146.712 34.6188C146.788 34.5996 146.865 34.5965 146.948 34.5965C147.545 34.5965 148.026 35.0841 148.026 35.6673C148.026 36.2553 147.545 36.7419 146.948 36.7419C146.685 36.7419 146.434 36.6493 146.247 36.483C146.259 36.483 146.279 36.483 146.283 36.483C146.825 36.483 147.268 36.0348 147.268 35.5051C147.268 35.1093 147.034 34.776 146.712 34.6188ZM149.778 35.7508C149.757 35.508 149.729 35.2764 149.704 35.0517C150.002 35.197 150.59 35.3026 150.925 35.3026C150.74 35.7106 150.513 36.0751 150.141 36.3601C150.04 36.1012 149.91 35.8989 149.778 35.7508ZM149.629 34.4556C149.495 33.9249 149.396 33.521 149.363 33.4373C150.141 33.7234 150.801 33.8503 151.384 33.8191C151.336 34.1615 151.286 34.4829 151.167 34.776C150.801 34.8201 149.904 34.6308 149.629 34.4556ZM149.213 32.815C149.149 32.7053 149.065 32.551 148.962 32.3759C148.962 32.3627 148.953 32.3365 148.953 32.3365C148.683 31.8763 148.275 31.2267 147.699 30.6948C146.51 29.59 144.972 29.4409 144.179 30.2094C143.465 30.9103 143.611 32.0646 143.663 32.4241C143.708 32.7888 143.535 33.1564 143.168 33.1564C142.797 33.1564 142.611 32.7888 142.67 32.4241C142.719 32.0646 142.87 30.9103 142.155 30.2094C141.361 29.4409 139.823 29.59 138.638 30.6948C138.059 31.2267 137.654 31.8763 137.384 32.3365C137.384 32.3365 137.384 32.3627 137.375 32.3759C137.265 32.551 137.191 32.7053 137.127 32.815C136.846 33.1564 135.28 33.4596 134.926 33.4243C134.375 33.3416 134.141 32.9771 134.07 32.6005L143.168 27.5756L152.26 32.6005C152.187 32.9771 151.957 33.3416 151.407 33.4243C151.055 33.4596 149.484 33.1564 149.213 32.815ZM134.418 34.776C134.505 35.1143 134.746 35.785 135.291 36.4527C134.295 36.4086 133.111 36.5173 132.319 36.772C132.213 36.4649 132.092 35.9876 132.042 35.3549C132.452 35.1042 133.665 34.8725 134.418 34.776ZM135.85 56.2014C138.259 55.4461 141.672 55.3937 143.168 55.3937C144.656 55.3937 148.065 55.4461 150.478 56.2014C150.513 56.4774 150.533 56.7532 150.542 57.0263C148.504 56.4774 145.788 56.28 143.168 56.28C140.544 56.28 137.824 56.4774 135.804 57.0263C135.804 56.7532 135.831 56.4774 135.85 56.2014ZM151.033 36.4527C151.58 35.785 151.83 35.1143 151.908 34.776C152.677 34.8725 153.881 35.1042 154.284 35.3549C154.25 35.9876 154.113 36.4649 154.004 36.772C153.225 36.5173 152.044 36.4086 151.033 36.4527ZM134.176 23.7192C134.847 19.3712 138.61 16.0234 143.168 16.0234C147.716 16.0234 151.472 19.3712 152.159 23.7192C152.534 26.8173 151.314 28.2132 150.542 28.6684C149.087 29.5065 147.992 27.9927 148.658 26.6199C148.664 26.6109 148.921 26.0579 149.003 25.786C149.003 25.7728 149.003 25.7728 149.003 25.7637C149.046 25.6237 149.087 25.4615 149.109 25.3116C149.115 25.2551 149.118 25.1936 149.126 25.1453C149.141 25.0276 149.164 24.9127 149.182 24.7939C149.204 24.6014 149.204 24.4172 149.204 24.2198C149.204 20.8942 146.51 18.204 143.168 18.204C139.829 18.204 137.127 20.8942 137.127 24.2198C137.127 24.4172 137.133 24.6014 137.157 24.7939C137.171 24.9127 137.191 25.0276 137.197 25.1453C137.217 25.1936 137.222 25.2551 137.223 25.3116C137.255 25.4616 137.295 25.6237 137.331 25.7637C137.331 25.7728 137.331 25.7728 137.331 25.786C137.408 26.0579 137.665 26.6109 137.669 26.6199C138.356 27.9927 137.25 29.5065 135.793 28.6684C135.008 28.2132 133.801 26.8173 134.176 23.7192ZM122.937 31.972C127.463 31.0685 131.05 29.0108 133.194 25.4828C133.226 25.7194 133.275 25.9754 133.319 26.2512C131.715 29.3452 127.973 31.6345 122.937 32.6568V31.972ZM133.634 27.2907C133.977 28.2474 134.532 29.1729 135.433 29.7049C134.574 30.3323 131.778 32.5873 131.619 32.6659C128.214 32.56 124.704 33.1836 122.955 34.1262L122.937 33.3809C124.704 32.9286 130.517 31.972 133.634 27.2907ZM122.937 34.9653C124.508 33.7888 128.911 33.2279 131.53 33.5079C131.452 33.8806 131.366 34.3459 131.342 34.8725C128.281 34.4829 124.767 34.6803 122.937 35.9785V34.9653ZM131.346 35.6803C131.381 36.1103 131.452 36.5575 131.601 36.9998C128.479 36.5173 125.015 36.496 122.937 37.9969L122.914 36.7902C124.453 35.4476 128.793 35.0478 131.346 35.6803ZM131.53 38.0926C131.53 38.0926 131.413 40.5853 132.545 42.4545C131.655 42.3095 130.752 42.2431 130.017 42.2088C130.063 42.3881 130.104 42.5461 130.122 42.6913C131.366 42.7616 132.322 42.945 132.553 42.9943V44.0036C131.712 43.8676 130.85 43.801 130.122 43.7789V44.2533C131.346 44.3188 132.319 44.5081 132.553 44.5565V45.5607C131.712 45.4248 130.833 45.3643 130.122 45.3421V45.8245C131.333 45.8849 132.314 46.0611 132.553 46.1135V47.1178C131.712 46.9778 130.817 46.9204 130.122 46.9204V47.3988C131.311 47.439 132.314 47.6052 132.553 47.6576V48.6757C131.712 48.5308 130.808 48.4693 130.122 48.4916V48.966C131.301 49.0011 132.303 49.1582 132.553 49.2156V50.2289C131.712 50.098 130.785 50.0324 130.122 50.0627V50.532C131.288 50.5623 132.288 50.7164 132.553 50.7607V51.7869C131.715 51.6471 130.78 51.5856 130.122 51.6279V52.1072C131.258 52.1202 132.283 52.2745 132.553 52.3178V53.3401C131.715 53.213 130.767 53.1386 130.122 53.1909L130.063 53.6784C131.05 53.6905 132.022 53.8093 132.431 53.8537C132.213 54.731 132.085 55.5426 132.031 56.3052C130.585 56.2357 129.157 56.3322 127.858 56.5125C128.858 55.9989 129.756 54.6775 129.756 52.6561V43.4062C129.756 39.1068 124.885 39.9709 124.885 44.7488V53.9715C124.885 55.6565 125.626 56.5337 126.518 56.728C124.879 57.0302 123.603 57.3807 123.073 57.548C123.442 55.3061 124.071 54.6775 124.071 54.6775C124.24 54.5647 124.492 54.476 124.676 54.4015V53.9362C124.305 54.0641 124.071 54.165 124.071 54.165V53.0942C124.24 52.9894 124.492 52.91 124.676 52.8314V52.357C124.305 52.4981 124.071 52.5856 124.071 52.5856V52.5988V51.519C124.24 51.4183 124.492 51.3257 124.676 51.2603V50.7908C124.305 50.9218 124.071 51.0196 124.071 51.0196V49.9398C124.24 49.843 124.492 49.7595 124.676 49.698V49.2197C124.305 49.3517 124.071 49.4563 124.071 49.4563V48.3606C124.24 48.2771 124.492 48.1933 124.676 48.132V47.6535C124.305 47.7804 124.071 47.8812 124.071 47.8812V46.7853C124.24 46.7017 124.492 46.6323 124.676 46.5568V46.0782C124.305 46.2092 124.071 46.3109 124.071 46.3109V45.2103C124.24 45.1216 124.492 45.057 124.676 44.9906V44.5162C124.305 44.6391 124.071 44.7488 124.071 44.7488V43.6218C124.251 43.5514 124.481 43.4859 124.676 43.4194L124.818 42.8887C124.453 43.0205 124.071 43.1736 124.071 43.1736C123.088 41.5944 122.937 40.818 122.937 38.9929C124.767 37.2112 129.905 37.4962 131.53 38.0926ZM129.353 44.5696V44.9462L127.89 45.342V47.1228V47.4742V52.1959C128.405 52.1516 128.9 52.1908 129.353 52.2825V52.7871C129.348 52.9453 129.313 53.0771 129.292 53.2211C127.694 53.0327 126.309 53.3803 125.577 53.6249C125.73 53.2473 125.981 52.8314 126.365 52.5554C126.702 52.4275 127.057 52.3178 127.443 52.2522V47.5881L127.474 47.1842V45.473L126.035 45.7882L126.028 52.4799C125.861 52.6249 125.487 52.9975 125.366 53.5284V44.5998C125.479 40.3617 129.353 39.9879 129.353 43.4062V43.656C129.119 42.7526 128.492 42.235 127.739 42.4405C126.799 42.7084 126.035 44.0518 126.035 45.4025V45.4378L129.353 44.5696ZM129.225 53.634C128.907 55.1257 128.102 55.9768 127.307 56.1962C126.778 55.6697 126.54 54.7177 126.518 53.7911C127.634 53.5676 128.709 53.6029 129.225 53.634ZM125.406 54.1255C125.686 54.0109 125.972 53.9323 126.263 53.8446C126.242 55.0422 126.68 55.9768 126.834 56.2357C126.082 56.1962 125.451 55.5125 125.378 54.2262C125.387 54.1779 125.394 54.1649 125.406 54.1255ZM131.994 56.7703C131.986 56.8984 131.975 57.0525 131.975 57.1884C127.906 56.9456 123.775 58.1925 122.955 58.4514C122.964 58.3245 122.978 58.1975 122.993 58.0747C127.115 56.701 130.649 56.701 131.994 56.7703ZM122.955 56.025V43.069C123.079 43.2664 123.221 43.4547 123.374 43.6168V54.6775C123.374 54.6775 123.123 55.1086 122.955 56.025ZM131.975 57.6527C131.986 57.8016 131.994 57.9518 132.009 58.0968C127.882 57.9165 123.756 59.1362 122.955 59.387V58.964C127.189 57.4997 130.817 57.5651 131.975 57.6527ZM122.955 80.337V61.7117C123.271 62.7298 123.87 64.0231 124.896 65.0322V77.3226C124.896 77.3226 123.672 78.486 123.11 80.3985C123.067 80.3764 123.004 80.3502 122.955 80.337ZM133.526 80.8851C131.936 81.0783 127.145 81.4863 123.784 80.1699C124.11 79.2444 124.65 78.196 125.487 77.4152C125.88 77.3709 126.469 77.3226 127.064 77.3267L126.937 76.7919C126.542 76.7779 126.073 76.7779 125.579 76.822V75.6327C125.903 75.5984 126.337 75.5671 126.834 75.5712V75.0415C126.456 75.0324 126.035 75.0324 125.579 75.0586V73.8872C125.903 73.852 126.337 73.8167 126.834 73.8258V73.2899C126.456 73.2769 126.035 73.2769 125.579 73.3041V72.1317C125.903 72.1055 126.337 72.0702 126.834 72.0754V71.5486C126.456 71.5265 126.035 71.5265 125.579 71.5535V70.3771C125.903 70.3419 126.337 70.3157 126.834 70.3279V69.7891C126.456 69.785 126.035 69.785 125.579 69.8112V68.6307C125.903 68.5915 126.337 68.5604 126.834 68.5695V68.0385C126.456 68.0255 126.035 68.0255 125.579 68.0507V66.8713C125.903 66.8461 126.337 66.8139 126.834 66.8189V66.2923C126.456 66.27 126.035 66.27 125.579 66.3102V65.1338C125.903 65.0936 126.337 65.0635 126.834 65.0724L126.95 64.5276C126.498 64.5245 125.886 64.5277 125.333 64.5769C124.758 63.9365 123.382 62.1498 123.067 59.8553C127.222 58.4685 130.78 58.4906 132.063 58.5702C132.431 61.071 133.852 63.2162 134.519 63.9837C133.838 63.9495 133.163 63.9627 132.586 63.9978L132.606 64.5588C133.439 64.5246 134.148 64.5588 134.604 64.5982V65.8148C133.893 65.7876 133.202 65.7876 132.606 65.8269V66.3838C133.439 66.3445 134.148 66.3838 134.604 66.4282V67.6388C133.893 67.6085 133.202 67.6176 132.606 67.6438V68.2058C133.439 68.1706 134.148 68.2059 134.604 68.245V69.4608C133.893 69.4245 133.202 69.4385 132.606 69.4778V70.0257C133.439 69.9995 134.148 70.0348 134.604 70.061V71.2806C133.893 71.2505 133.202 71.2635 132.606 71.2988V71.8467C133.439 71.8246 134.148 71.8467 134.604 71.891V73.1096C133.893 73.0795 133.202 73.0977 132.606 73.1187V73.6717C133.439 73.6455 134.148 73.6717 134.604 73.72V74.9407C133.893 74.8914 133.202 74.9186 132.606 74.9539V75.4926C133.439 75.4755 134.148 75.5067 134.604 75.55V76.7647C133.875 76.7175 133.124 76.7395 132.53 76.7779L132.336 77.3317C133.194 77.2925 134.031 77.3398 134.558 77.38C133.966 78.362 133.677 79.7437 133.526 80.8851ZM138.212 65.0724C137.553 65.0322 136.883 65.0464 136.321 65.0815V65.6345C137.096 65.6082 137.762 65.6345 138.212 65.6728V67.1C137.553 67.0818 136.883 67.0858 136.321 67.1171V67.679C137.096 67.6437 137.762 67.674 138.212 67.7002V69.1484C137.553 69.1173 136.883 69.1264 136.321 69.1616V69.7186C137.096 69.6843 137.762 69.7095 138.212 69.7497V71.18C137.553 71.1577 136.883 71.1709 136.321 71.2062V71.7501C137.096 71.7288 137.762 71.7501 138.212 71.7942V73.2245C137.553 73.1934 136.883 73.1934 136.321 73.2416V73.8086C137.096 73.7593 137.762 73.8086 138.212 73.8299V75.2641C137.553 75.2389 136.883 75.2519 136.321 75.2822V75.8391C137.096 75.8049 137.762 75.8391 138.212 75.8664V77.3096C137.553 77.2744 136.883 77.2925 136.321 77.3267V77.8796C137.096 77.8484 137.762 77.8796 138.212 77.919V79.3451C137.553 79.3137 136.883 79.3319 136.321 79.3632V79.9191C137.096 79.894 137.762 79.9191 138.212 79.9594V82.2326C136.776 82.1177 135.291 81.8902 134.154 81.5165C134.451 79.2092 135.258 77.3045 135.258 77.3045V63.7077C133.677 62.0097 132.904 60.2199 132.653 58.4786C133.54 57.8239 134.854 57.8107 135.204 57.8239C135.368 59.4083 136.111 61.2069 138.021 63.0229C137.427 62.9886 136.835 63.0188 136.321 63.045V63.5889C137.096 63.5718 137.762 63.5889 138.212 63.62L138.212 65.0724ZM147.541 82.2799C147 82.3112 146.488 82.3384 146.018 82.3605V70.8858C146.018 69.3811 144.864 68.1705 143.395 68.0507V74.2859C144.397 74.3959 145.182 75.2428 145.182 76.2702C145.182 77.3045 144.397 78.1516 143.395 78.2572V82.5035H142.929V78.2572C141.938 78.1516 141.149 77.3045 141.149 76.2702C141.149 75.2428 141.938 74.3959 142.929 74.2859V68.0507C141.459 68.1705 140.308 69.3811 140.308 70.8858V82.3605C139.829 82.3384 139.327 82.3112 138.803 82.2799V72.316C139.446 72.3119 139.92 71.7722 139.92 69.9824C139.92 68.1705 141.364 66.7312 143.168 66.7312C144.963 66.7312 146.422 68.1705 146.422 69.9824C146.422 71.7722 146.88 72.3119 147.541 72.316L147.541 82.2799ZM143.217 63.2737C142.313 63.2737 141.563 64.006 141.563 64.9144C141.563 65.4331 141.797 65.8884 142.17 66.1864C141.541 66.3535 140.985 66.6648 140.52 67.0818V66.0817V64.309C140.52 62.8566 141.708 61.6723 143.168 61.6723C144.622 61.6723 145.806 62.8566 145.806 64.309V66.0817V67.0858C145.365 66.6739 144.818 66.3758 144.225 66.1994C144.611 65.9014 144.864 65.4412 144.864 64.9144C144.864 64.006 144.115 63.2737 143.217 63.2737ZM147.541 71.5797C147.242 71.5535 147.1 70.925 147.1 69.9824C147.1 69.1264 146.819 68.3287 146.354 67.6831V64.309C146.354 62.9886 145.562 61.8788 144.427 61.3953C145.637 61.1154 146.691 60.4124 147.437 59.4737L146.746 59.3507C145.88 60.2321 144.864 60.9169 143.201 60.9169C141.613 60.9169 140.538 60.2321 139.682 59.3507L138.965 59.4737C139.718 60.4123 140.742 61.0842 141.931 61.3781C140.792 61.8686 139.984 62.9837 139.984 64.309V67.6831C139.513 68.3287 139.242 69.1264 139.242 69.9824C139.242 70.925 139.092 71.5535 138.803 71.5797V62.7469C138.803 62.7469 136.163 60.9169 135.837 57.7233C137.774 57.1965 140.633 56.9949 143.168 56.9949C145.661 56.9949 149.003 57.2237 150.511 57.7233C150.182 60.9169 147.541 62.7469 147.541 62.7469V71.5797ZM148.113 82.2326V79.9593C148.576 79.9191 149.243 79.894 150.011 79.9191V79.3632C149.441 79.3319 148.778 79.3137 148.113 79.3451V77.9189C148.576 77.8795 149.243 77.8484 150.011 77.8795V77.3267C149.441 77.2925 148.778 77.2744 148.113 77.3096V75.8664C148.576 75.8391 149.243 75.8049 150.011 75.8391V75.2822C149.441 75.2519 148.778 75.2389 148.113 75.2641V73.8299C148.576 73.8086 149.243 73.7593 150.011 73.8086V73.2416C149.441 73.1934 148.778 73.1934 148.113 73.2245V71.7942C148.576 71.7501 149.243 71.7288 150.011 71.7501V71.2062C149.441 71.1709 148.778 71.1577 148.113 71.18V69.7497C148.576 69.7095 149.243 69.6843 150.011 69.7185V69.1616C149.441 69.1263 148.778 69.1173 148.113 69.1484V67.7002C148.576 67.674 149.243 67.6437 150.011 67.679V67.1171C149.441 67.0857 148.778 67.0818 148.113 67.1V65.6728C148.576 65.6345 149.243 65.6082 150.011 65.6345V65.0814C149.441 65.0464 148.778 65.0321 148.113 65.0724V63.62C148.576 63.5888 149.243 63.5718 150.011 63.5888V63.045C149.495 63.0188 148.914 62.9886 148.322 63.0229C150.225 61.2069 150.981 59.4083 151.126 57.8239C151.472 57.8107 152.794 57.8239 153.681 58.4786C153.433 60.2199 152.664 62.0097 151.066 63.7077V77.3045C151.066 77.3045 151.884 79.2091 152.185 81.5165C151.033 81.8902 149.562 82.1177 148.113 82.2326ZM152.804 80.8851C152.649 79.7437 152.36 78.362 151.774 77.3799C152.304 77.3397 153.15 77.2925 153.999 77.3317L153.802 76.7779C153.202 76.7395 152.463 76.7174 151.738 76.7647V75.55C152.187 75.5066 152.906 75.4755 153.725 75.4926V74.9538C153.137 74.9186 152.441 74.8913 151.738 74.9406V73.7199C152.187 73.6717 152.906 73.6455 153.725 73.6717V73.1187C153.137 73.0976 152.441 73.0795 151.738 73.1096V71.891C152.187 71.8466 152.906 71.8246 153.725 71.8466V71.2988C153.137 71.2635 152.441 71.2505 151.738 71.2806V70.061C152.187 70.0347 152.906 69.9995 153.725 70.0257V69.4778C153.137 69.4385 152.441 69.4244 151.738 69.4607V68.245C152.187 68.2058 152.906 68.1705 153.725 68.2058V67.6437C153.137 67.6175 152.441 67.6085 151.738 67.6388V66.4282C152.187 66.3838 152.906 66.3444 153.725 66.3838V65.8269C153.137 65.7875 152.441 65.7875 151.738 65.8148V64.5982C152.187 64.5588 152.906 64.5245 153.725 64.5588L153.748 63.9977C153.172 63.9627 152.494 63.9495 151.822 63.9837C152.485 63.2162 153.903 61.071 154.269 58.5702C155.565 58.4906 159.113 58.4685 163.28 59.8552C162.954 62.1498 161.582 63.9365 160.996 64.5769C160.44 64.5276 159.842 64.5245 159.373 64.5276L159.492 65.0724C159.994 65.0635 160.434 65.0936 160.752 65.1338V66.3102C160.31 66.27 159.873 66.27 159.492 66.2922V66.8189C159.994 66.8139 160.434 66.8461 160.752 66.8712V68.0507C160.31 68.0255 159.873 68.0255 159.492 68.0385V68.5694C159.994 68.5604 160.434 68.5915 160.752 68.6307V69.8112C160.31 69.785 159.873 69.785 159.492 69.7891V70.3278C159.994 70.3157 160.434 70.3419 160.752 70.3771V71.5535C160.31 71.5265 159.873 71.5265 159.492 71.5486V72.0754C159.994 72.0702 160.434 72.1055 160.752 72.1317V73.3041C160.31 73.2769 159.873 73.2769 159.492 73.2899V73.8258C159.994 73.8167 160.434 73.852 160.752 73.8872V75.0586C160.31 75.0324 159.873 75.0324 159.492 75.0415V75.5712C159.994 75.5671 160.434 75.5984 160.752 75.6326V76.822C160.269 76.7778 159.774 76.7778 159.402 76.7919L159.269 77.3267C159.869 77.3226 160.44 77.3709 160.838 77.4152C161.688 78.1959 162.215 79.2444 162.553 80.1699C159.178 81.4863 154.392 81.0783 152.804 80.8851ZM163.389 80.337C163.337 80.3502 163.28 80.3764 163.23 80.3985C162.662 78.486 161.437 77.3226 161.437 77.3226V65.0321C162.466 64.0231 163.065 62.7298 163.389 61.7116V80.337ZM163.389 59.387C162.571 59.1362 158.445 57.8903 154.332 58.0968C154.341 57.9518 154.351 57.8016 154.355 57.6527C155.524 57.5651 159.147 57.4997 163.389 58.964L163.389 59.387ZM156.987 44.9462V44.5696L160.31 45.4378V45.4025C160.31 44.0518 159.54 42.7084 158.589 42.4405C157.856 42.235 157.222 42.7526 156.987 43.656V43.4062C156.987 39.9879 160.853 40.3617 160.974 44.5998V53.5284C160.838 52.9975 160.471 52.6249 160.313 52.4799L160.31 45.7882L158.865 45.473V47.1842L158.883 47.5881V52.2522C159.278 52.3178 159.635 52.4275 159.978 52.5554C160.364 52.8314 160.599 53.2473 160.763 53.6249C160.033 53.3803 158.65 53.0327 157.043 53.2211C157.024 53.0771 156.998 52.9453 156.987 52.7871V52.2825C157.436 52.1908 157.918 52.1516 158.445 52.1959V47.4742V47.1228V45.342L156.987 44.9462ZM160.954 54.2262C160.877 55.5125 160.244 56.1962 159.507 56.2357C159.652 55.9768 160.091 55.0422 160.069 53.8446C160.365 53.9323 160.641 54.0109 160.932 54.1255C160.937 54.1649 160.942 54.1779 160.954 54.2262ZM159.815 53.7911C159.795 54.7177 159.563 55.6697 159.025 56.1962C158.22 55.9768 157.425 55.1257 157.114 53.634C157.626 53.6029 158.705 53.5676 159.815 53.7911ZM163.343 58.0747C163.361 58.1975 163.373 58.3245 163.373 58.4514C162.565 58.1925 158.431 56.9456 154.355 57.1884C154.355 57.0525 154.351 56.8984 154.342 56.7703C155.682 56.701 159.214 56.701 163.343 58.0747ZM163.389 56.025C163.204 55.1086 162.968 54.6775 162.968 54.6775V43.6168C163.115 43.4547 163.252 43.2664 163.389 43.069V56.025ZM162.265 43.1735C162.265 43.1735 161.889 43.0205 161.516 42.8887L161.666 43.4194C161.859 43.4858 162.091 43.5514 162.265 43.6218V44.7488C162.265 44.7488 162.024 44.639 161.666 44.5162V44.9906C161.855 45.057 162.091 45.1215 162.265 45.2102V46.3109C162.265 46.3109 162.024 46.2092 161.666 46.0782V46.5568C161.855 46.6323 162.091 46.7017 162.265 46.7853V47.8812C162.265 47.8812 162.024 47.7803 161.666 47.6535V48.132C161.855 48.1933 162.091 48.277 162.265 48.3606V49.4563C162.265 49.4563 162.024 49.3517 161.666 49.2197V49.698C161.849 49.7595 162.091 49.843 162.265 49.9398V51.0196C162.265 51.0196 162.024 50.9218 161.666 50.7908V51.2602C161.849 51.3257 162.095 51.4183 162.265 51.5189V52.5855C162.265 52.5855 162.024 52.4981 161.666 52.357V52.8314C161.841 52.91 162.095 52.9894 162.265 53.0942V54.1649C162.265 54.1649 162.024 54.0641 161.666 53.9362V54.4015C161.841 54.476 162.091 54.5646 162.265 54.6775C162.265 54.6775 162.897 55.306 163.262 57.5479C162.734 57.3807 161.465 57.0302 159.815 56.728C160.71 56.5337 161.449 55.6565 161.449 53.9715V44.7488C161.449 39.9708 156.588 39.1068 156.588 43.4062V52.6561C156.588 54.6775 157.472 55.9989 158.483 56.5125C157.187 56.3322 155.75 56.2357 154.313 56.3052C154.261 55.5426 154.124 54.731 153.903 53.8537C154.313 53.8093 155.283 53.6905 156.276 53.6784L156.206 53.1909C155.565 53.1386 154.624 53.213 153.779 53.3401V52.3178C154.057 52.2825 155.07 52.1202 156.206 52.1072V51.6278C155.565 51.5856 154.624 51.647 153.779 51.7869V50.7607C154.043 50.7163 155.057 50.5623 156.206 50.5319V50.0627C155.546 50.0324 154.624 50.098 153.779 50.2289V49.2156C154.038 49.1582 155.028 49.001 156.206 48.966V48.4916C155.529 48.4693 154.624 48.5307 153.779 48.6757V47.6576C154.027 47.6052 155.021 47.439 156.206 47.3988V46.9204C155.513 46.9204 154.624 46.9777 153.779 47.1178V46.1135C154.027 46.0611 155.004 45.8849 156.206 45.8245V45.342C155.507 45.3643 154.624 45.4247 153.779 45.5607V44.5565C154.01 44.5081 154.982 44.3187 156.206 44.2533V43.7789C155.491 43.801 154.624 43.8676 153.779 44.0036V42.9943C154.004 42.945 154.964 42.7616 156.206 42.6913C156.237 42.5461 156.272 42.3881 156.329 42.2088C155.565 42.2431 154.671 42.3095 153.791 42.4545C154.914 40.5853 154.791 38.0925 154.791 38.0925C156.434 37.4962 161.568 37.2112 163.395 38.9929C163.395 40.818 163.244 41.5944 162.265 43.1735ZM163.393 37.9969C161.33 36.496 157.859 36.5173 154.736 36.9998C154.883 36.5575 154.964 36.1103 154.982 35.6803C157.544 35.0478 161.889 35.4476 163.427 36.7902L163.393 37.9969ZM184.759 41.4494C185.575 41.537 187.472 41.7697 187.623 40.4281C187.726 39.5146 189.458 41.0808 189.458 41.6125C189.458 42.6913 189.458 43.8625 189.458 44.0378L184.695 42.4153C184.695 42.4153 184.695 42.0244 184.759 41.4494ZM180.869 37.9051C180.869 38.5668 180.93 39.8038 180.93 41.0022C180.305 40.8531 179.921 40.7212 179.479 40.5368L179.417 37.5759C179.417 37.5759 179.479 36.8426 178.845 36.1497C180.116 36.3995 180.869 37.2646 180.869 37.9051ZM172.536 37.4529C174.869 37.8518 175.37 35.8556 175.37 35.8556C176.472 35.7236 177.376 35.908 177.376 35.908C178.466 36.206 178.466 37.2153 178.466 37.2153V40.1633L172.536 38.154V37.4529ZM169.938 38.3483L171.291 38.7914C174.381 39.8258 177.399 40.831 180.386 41.8221C182.521 42.5513 184.618 43.2703 186.687 43.9895C186.771 44.0116 186.864 44.0469 186.969 44.0871L190.041 45.1477C190.182 45.2756 190.331 45.465 190.474 45.7016C188.137 44.912 174.903 40.4533 169.938 38.7693V38.3483ZM169.938 39.2739L171.974 39.9446L190.699 46.2314C190.75 46.3855 190.786 46.5697 190.816 46.75L169.938 39.9366V39.2739ZM169.398 46.4681C169.398 44.5737 172.232 45.2756 172.232 47.316V55.3281C172.036 55.1478 171.777 54.9364 171.376 54.7128L171.388 48.9961C171.388 47.4742 170.51 46.86 169.79 46.5738C169.647 46.5215 169.523 46.5093 169.398 46.5093L169.398 46.4681ZM172.856 69.8233L174.885 69.8817C175.431 70.7852 175.741 72.0844 174.194 72.8699L172.371 72.8427C172.606 72.6977 174.085 71.6492 172.856 69.8233ZM175.9 48.132C175.741 48.0745 175.59 48.0654 175.453 48.0877V48.0091C175.453 45.9555 178.297 47.0955 178.297 48.9961V56.4471C178.069 56.2266 177.705 55.9677 177.183 55.6826L177.197 50.3608C177.197 49.4041 176.613 48.3998 175.9 48.132ZM177.179 56.1127C177.437 56.2577 177.803 56.4994 178.12 56.8107C177.376 56.5075 176.152 56.3765 175.453 56.5257V55.7976C176.057 55.872 176.667 55.9768 177.179 56.1127ZM178.297 57.2408V60.3167C177.572 59.9732 176.212 59.8202 175.453 59.9873V56.9205C175.697 56.6657 177.985 56.7703 178.297 57.2408ZM178.297 60.6671V61.6149C177.554 60.6541 176.212 60.2591 175.453 60.8163V60.3821C175.697 60.1151 177.985 60.1847 178.297 60.6671ZM175.9 62.1065C175.741 62.0541 175.6 62.045 175.471 62.0761C175.568 60.1676 178.297 61.1768 178.297 63.045V69.6581L177.183 69.6179L177.197 64.2869C177.197 63.331 176.613 62.3441 175.9 62.1065ZM175.495 69.9027L178.327 69.9824C178.831 70.8596 179.135 72.1317 177.671 72.9132L175.028 72.878C175.344 72.6756 176.647 71.6492 175.495 69.9027ZM178.895 70.0086L180.587 70.0519C181.095 70.925 181.385 72.167 179.963 72.9436L178.492 72.9264C178.831 72.6756 179.997 71.6765 178.895 70.0086ZM181.462 49.5268C181.329 49.4835 181.198 49.4785 181.095 49.4925C181.147 47.6415 183.818 48.7071 183.818 50.4837V57.5308C183.611 57.2971 183.24 56.99 182.618 56.6567L182.63 51.6328C182.63 50.7294 182.104 49.7818 181.462 49.5268ZM182.618 57.0906V57.0686C182.874 57.2014 183.212 57.4382 183.516 57.7373C182.783 57.4916 181.703 57.3858 181.073 57.5308V56.8108C181.615 56.8722 182.144 56.9677 182.618 57.0906ZM183.818 58.2146V61.0176C183.119 60.6803 181.814 60.5442 181.073 60.7114V57.9297C181.244 57.6618 183.516 57.7373 183.818 58.2146ZM183.818 61.3691V62.3441C183.119 61.4134 181.792 61.0619 181.073 61.6421V61.0971C181.244 60.8424 183.516 60.8907 183.818 61.3691ZM181.462 62.7822C181.329 62.7469 181.202 62.7469 181.095 62.755C181.234 61.0357 183.818 61.9744 183.818 63.7209V69.8233L182.618 69.7891L182.63 64.8488C182.63 63.9365 182.104 63.0188 181.462 62.7822ZM181.147 70.0742L183.788 70.1486C184.272 71.0046 184.558 72.2284 183.216 72.9959L180.767 72.9526C181.139 72.6977 182.221 71.7016 181.147 70.0742ZM184.346 70.1667L185.839 70.2111C186.328 71.048 186.602 72.2505 185.297 73.023L184 72.9959C184.386 72.7057 185.367 71.7328 184.346 70.1667ZM188.236 73.0583L186.066 73.031C186.463 72.72 187.369 71.759 186.382 70.2272L187.505 70.2633H187.539L188.735 70.2936C189.205 71.1226 189.481 72.299 188.236 73.0583ZM189.267 73.4349C189.567 73.5005 189.755 73.6636 189.857 73.852L168.34 73.6585V73.2517L189.267 73.4349ZM186.493 63.3793C186.382 63.3432 186.284 63.3432 186.199 63.3482C186.382 61.6985 188.826 62.5404 188.826 64.2395V69.9824L187.539 69.938L187.557 65.3444C187.557 64.4672 187.079 63.5889 186.493 63.3793ZM188.826 58.6013C188.629 58.3507 188.236 58.0042 187.539 57.6265L187.557 52.8143C187.557 51.9311 187.079 51.0367 186.493 50.8079C186.382 50.7607 186.294 50.7607 186.209 50.7607C186.459 49.2287 188.826 50.1675 188.826 51.8444V58.6013ZM187.486 57.999C187.736 58.131 188.111 58.3728 188.433 58.6931C187.736 58.4786 186.749 58.3949 186.177 58.531V57.7404C186.636 57.8068 187.088 57.8854 187.486 57.999ZM188.826 59.2853V61.645C188.147 61.3167 186.864 61.1717 186.177 61.3389V58.9297C186.177 58.6265 188.826 58.7152 188.826 59.2853ZM188.826 62.0761V62.9101C188.147 61.9916 186.864 61.6764 186.177 62.2857V61.7558C186.177 61.4175 188.826 61.4969 188.826 62.0761ZM171.509 72.8336L168.83 72.8035C168.83 72.7944 170.717 71.7328 169.365 69.7367L172.254 69.8112C172.796 70.7066 173.122 72.036 171.509 72.8336ZM169.736 61.5141C169.605 61.479 169.476 61.4749 169.357 61.479C169.515 59.5219 172.232 60.5089 172.232 62.2777V69.4688L171.376 69.4385L171.388 63.7692C171.388 62.1809 170.463 61.7729 169.736 61.5141ZM169.398 54.7611C169.923 54.8357 170.717 54.9242 171.186 55.0381C171.469 55.2002 171.817 55.4409 172.133 55.7662C171.434 55.4721 170.081 55.3322 169.398 55.4721V54.7611ZM169.398 55.9153C169.857 55.7309 171.835 55.7662 172.232 56.14V59.387C171.567 59.0747 170.115 58.9258 169.398 59.0698V55.9153ZM169.398 59.5129C169.857 59.3155 171.835 59.3427 172.232 59.7113V60.6227C171.537 59.7496 170.103 59.4737 169.398 60.0487V59.5129ZM168.84 46.3856V55.8277C168.84 55.8367 168.83 55.8367 168.83 55.8448H168.84V59.4384C168.84 59.4384 168.83 59.4433 168.83 59.4604H168.84V69.4073H168.848V69.4205V69.6843C169.226 70.5927 169.454 71.9303 168.34 72.7552V47.0169C168.34 46.2092 168.314 45.5817 169.017 44.762C169.144 44.762 169.263 44.7267 169.398 44.6873C169.067 44.9644 168.84 45.5083 168.84 46.3856ZM167.317 32.5077C167.714 33.4868 167.494 34.223 167.887 35.197C168.076 35.6803 168.709 36.2504 169.178 36.4831V43.1736C169.067 44.1566 166.954 43.5865 166.839 42.7616C166.785 42.4153 166.839 41.3487 166.813 40.3918V33.9078C166.813 32.2308 165.897 31.696 164.418 31.1178C165.526 31.0161 166.852 31.3575 167.317 32.5077ZM165.067 47.1228V80.7007C164.811 80.6916 164.316 80.6402 163.852 80.3502V42.2571C164.303 41.3174 164.557 40.142 164.557 38.9395C164.557 37.7733 164.592 33.0254 164.592 32.1523C165.053 32.1613 165.979 32.824 165.979 34.5301V43.367C165.214 44.6874 165.067 45.6401 165.067 47.1228ZM167.678 47.0169V78.218C167.663 79.4859 167.478 80.6885 165.645 80.6885V47.1228C165.645 45.4902 166.088 44.6612 166.632 44.0116C167.113 44.3893 167.752 44.5916 168.143 44.6702C167.692 45.5083 167.678 46.2455 167.678 47.0169ZM168.34 74.2517L189.968 74.3253C189.96 74.558 189.853 74.7785 189.66 74.9266L168.34 74.8913V74.2517ZM173.582 79.4992C173.402 79.5031 173.211 79.5122 173.032 79.5163V77.222C173.032 76.0415 171.313 75.4877 170.767 76.256C170.874 76.248 170.991 76.256 171.112 76.2954C171.928 76.511 172.568 77.5504 172.568 78.5866L172.566 79.5425C171.634 79.5736 170.767 79.6089 170.012 79.6392V76.822H170.01C170.01 76.8049 170.012 76.7919 170.012 76.7696V76.6246C170.032 76.6116 170.036 76.6116 170.036 76.5984C170.312 74.8179 173.582 75.3749 173.582 77.235V79.4992ZM179.274 79.2665C179.141 79.2665 179.01 79.2787 178.867 79.2787V77.222C178.867 76.0194 177.088 75.3959 176.76 76.3738C176.899 76.3224 177.05 76.3175 177.233 76.3738C177.934 76.5813 178.51 77.5332 178.51 78.486V79.2976C177.755 79.3228 177.006 79.3632 176.279 79.3803V76.6741C176.279 76.669 176.279 76.669 176.279 76.669C176.319 74.7907 179.274 75.4877 179.274 77.2925V79.2665ZM184.13 79.0639C184.022 79.0639 183.897 79.073 183.788 79.0771V77.1374C183.788 76.0285 182.251 75.4534 181.895 76.2651C182.036 76.2259 182.173 76.2207 182.326 76.2702C182.972 76.4625 183.49 77.3709 183.49 78.2795V79.0862C182.823 79.1163 182.144 79.1477 181.462 79.1658V76.5592C181.462 76.5592 181.462 76.5502 181.465 76.5502C181.568 74.8693 184.13 75.4755 184.13 77.1374V79.0639ZM188.5 78.8756C188.397 78.8847 188.306 78.8847 188.199 78.8847V77.0728C188.199 75.9932 186.856 75.4573 186.538 76.2612C186.655 76.2207 186.797 76.2207 186.928 76.2651C187.521 76.4534 187.986 77.3226 187.986 78.196V78.9018C187.44 78.9241 186.802 78.9462 186.145 78.9723V76.546C186.167 76.532 186.167 76.532 186.167 76.5159C186.28 74.8914 188.5 75.4312 188.5 77.0729V78.8756ZM190.206 78.8092C190.057 78.8152 189.869 78.8152 189.66 78.8274V75.4573C189.914 75.3526 190.081 75.2166 190.206 75.0586V78.8092ZM190.206 52.0538V73.5539C190 73.2899 189.668 73.1067 189.267 73.0715H188.985C189.38 72.7381 190.232 71.8023 189.285 70.3157H189.267V70.3108V69.9824V51.8787C189.267 49.4925 185.833 48.4612 185.712 50.8564H185.7V69.8817L184.312 69.8374V50.527C184.312 48.0877 180.603 46.9204 180.559 49.4664V69.7186L178.819 69.662V49.0575L178.805 49.0404C178.73 46.5215 174.945 45.2362 174.903 47.9175H174.899V69.5564L172.808 69.4778V47.3736C172.808 45.2362 170.767 44.5213 169.694 44.5737C170.191 44.3802 170.052 43.7356 170.052 43.2703C170.052 42.8716 170.052 42.1121 170.052 42.1121C170.052 42.1121 189.892 48.5086 190.782 48.8207C190.782 50.7293 190.206 50.0144 190.206 52.0538ZM190.76 47.992L169.938 41.2922V40.6206L190.856 47.3332C190.834 47.5357 190.808 47.7583 190.76 47.992ZM193.634 49.8915C193.634 51.2602 192.496 51.4354 192.496 52.7648L192.585 77.3799C192.585 78.5252 191.723 78.7488 190.864 78.7791V52.1293C190.864 50.6157 191.946 50.9057 191.946 49.264C191.946 48.413 191.946 47.3855 191.946 46.7057C191.946 45.6442 191.465 45.3421 190.687 44.5737C190.057 43.92 190.232 42.7526 190.232 41.6468C190.232 41.1724 189.857 40.6557 189.315 40.4663C190.371 40.5983 191.102 41.1724 191.102 41.8221C191.102 42.5201 191.106 42.8887 191.106 43.345C191.106 43.9462 191.664 44.6038 192.331 45.065C193.147 45.604 193.634 46.2314 193.634 46.9082C193.634 48.1149 193.634 48.7424 193.634 49.8915Z" fill="#892101"/>
<path d="M99.6459 118.263C98.6228 118.036 97.7596 117.922 96.6647 117.974C95.9084 118.057 95.7875 118.097 95.5932 118.057C95.3978 118.014 95.1229 117.786 95.1782 117.329C95.145 116.872 95.29 116.442 95.3444 116.004C95.5006 114.701 95.6253 113.284 98.9551 113.986C99.8575 114.17 100.954 114.525 102.032 115.416C102.832 116.061 103.139 116.759 103.826 116.894C104.474 117.066 104.664 116.258 104.72 115.705C104.793 114.845 104.741 114.389 104.949 113.485C104.929 113.134 104.978 112.774 105.137 112.441C105.238 112.077 105.307 111.696 105.372 111.296C105.349 110.896 105.419 110.506 104.719 110.349C104.192 110.26 104.433 110.349 101.358 109.717C98.247 109.431 97.2751 110.024 97.2751 110.024C96.0616 109.081 94.5266 108.37 93.1064 107.838C91.5241 107.447 90.8736 107.25 90.1665 107.088C89.525 106.94 89.375 107.268 89.386 107.497C89.3055 107.935 89.3447 108.303 89.5029 110.006C89.5281 111.836 89.5753 112.945 89.2521 115.152C88.967 117.768 88.6005 120.273 88.3466 122.923C88.0203 124.937 87.4735 127.464 86.7251 129.03C85.9988 130.519 86.6506 130.667 87.0716 130.786C87.4431 130.847 87.8389 130.925 88.1813 131.014C91.9422 131.532 92.9422 130.795 92.9422 130.795C94.3774 131.873 95.7351 132.747 97.4131 133.141C102.426 133.944 103.453 130.667 103.757 128.715C103.811 127.741 104.051 126.784 104.165 125.801C104.912 120.097 102.038 118.83 99.6459 118.263ZM97.812 127.67C97.7313 128.223 97.5007 129.421 95.6163 129.049C95.2396 128.964 93.7733 128.715 94.0039 126.596C94.1912 125.771 94.2134 124.946 94.3162 124.113C94.3665 123.151 94.6142 121.615 96.5228 122.006C98.3165 122.454 98.2662 123.902 98.219 124.547C98.0608 125.603 97.9127 126.622 97.812 127.67Z" fill="#FFEBC7"/>
<path d="M156.62 123.707C158.143 122.355 158.145 120.416 158.167 119.456C158.193 113.787 154.656 113.124 153.223 113.04C149.878 112.944 149.006 114.286 149.006 114.286C147.608 113.602 146.062 113.243 144.598 113.04C144.459 113.04 144.315 113.031 144.172 113.031C142.885 113.031 142.834 113.501 142.744 113.988C142.913 116.976 143.26 114.594 143.301 120.008C143.336 123.484 143.364 126.831 143.394 130.332C143.418 134.057 142.939 134.786 142.61 135.759C142.371 136.663 142.452 137.194 143.554 137.198C144.032 137.198 144.732 137.181 145.23 137.102C145.539 137.084 145.814 137.084 146.138 137.053C149.006 136.615 149.644 135.887 149.644 135.887C150.876 136.567 152.106 137.159 153.87 137.12C156.482 136.777 158.778 135.47 158.847 131.841C158.879 128.437 157.117 126.532 156.205 125.395C155.821 125 155.648 124.838 155.648 124.663C155.653 124.395 156.275 124.062 156.62 123.707ZM149.362 119.012C149.362 118.595 149.483 117.863 150.857 117.827C152.398 117.841 152.743 118.854 152.743 119.626C152.732 121.43 151.78 121.622 151.181 121.622C150.3 121.622 149.387 121.197 149.362 120.289C149.362 119.854 149.362 119.442 149.362 119.012ZM150.98 133.394C150.101 133.394 149.395 133.337 149.387 131.478C149.387 130.227 149.387 129.082 149.387 127.853C149.387 127.252 149.457 126.304 149.878 126.291C150.51 126.3 151.546 126.831 152.478 129.599C152.73 130.2 152.871 130.735 152.875 131.367C152.851 133.425 151.806 133.394 150.98 133.394Z" fill="#FFEBC7"/>
<path d="M126.01 130.271C126.03 126.528 126.01 122.93 125.987 119.169C125.98 115.024 125.183 114.871 125.131 113.603C125.113 112.8 126.04 112.764 126.552 112.791C126.931 112.791 127.427 112.839 127.862 112.884C129.395 113.12 131.143 113.568 132.525 114.318C132.525 114.318 133.269 113.549 136.459 113.243C136.759 113.212 137.021 113.212 137.369 113.221C137.876 113.194 138.273 113.194 138.787 113.194C139.298 113.225 139.811 113.406 139.824 114.23C139.712 115.287 139.629 115.56 139.64 117.065C139.645 117.472 139.677 117.924 139.757 118.337C139.764 118.819 139.965 119.236 139.979 119.737C139.979 120.469 139.563 120.781 138.889 120.767C138.12 120.742 137.69 120.245 137.185 119.886C136.277 119.254 135.567 118.986 134.463 118.93C132.799 118.908 132.109 119.683 132.025 120.517C132.109 123.628 133.221 123.431 134.658 123.474C135.669 123.496 135.755 123.356 136.694 123.405C137.953 123.431 139.321 123.654 139.349 124.935C139.221 125.607 138.798 126.358 136.755 126.3C135.623 126.269 134.542 126.235 133.359 126.199C132.091 126.173 131.97 126.95 131.988 127.577C131.895 128.841 132.025 130.095 131.964 131.367C132.016 133.07 132.944 133.132 133.78 133.149C134.89 133.21 136.049 133.299 137.563 132.574C138.412 132.189 138.817 131.723 139.497 131.732C140.254 131.771 140.28 132.32 140.287 132.552C140.289 133.263 140.063 133.034 140.077 134.589C139.954 135.497 140.113 135.918 140.113 136.321C140.116 137.409 139.112 137.387 138.196 137.361C137.701 137.361 137.245 137.331 136.658 137.29C135.167 137.054 133.551 136.616 132.122 135.852C132.122 135.852 131.394 136.606 128.39 136.94C128.224 136.94 128.08 136.949 127.903 136.94C127.28 136.949 126.739 137.002 126.164 136.988C125.786 136.953 125.106 136.887 125.078 136.321C125.132 133.763 125.995 135.799 126.01 130.271Z" fill="#FFEBC7"/>
<path d="M113.732 131.536C115.739 131.812 116.1 132.809 116.061 133.431C115.961 134.493 115.219 134.384 115.158 135.02C115.158 135.261 115.138 135.735 115.893 135.839C116.387 135.897 116.761 135.871 117.187 135.897C117.26 135.897 117.336 135.919 117.418 135.919C118.78 135.814 119.185 135.477 119.185 135.477C119.947 135.928 120.679 136.27 121.519 136.52C121.675 136.564 121.826 136.569 121.989 136.6C122.876 136.682 122.899 136.235 122.895 136.068C122.987 135.524 122.419 135.142 122 132.932C121.254 129.601 121.444 126.63 121.289 122.401C120.688 112.358 121.806 112.305 119.882 112.063C119.698 112.016 119.501 112.016 119.313 111.999C116.23 112.042 115.434 112.705 115.434 112.705C114.266 111.985 112.987 111.463 111.68 111.068C111.36 111.011 111.037 110.962 110.695 110.901C109.138 110.731 109.324 111.424 108.971 114.508C108.423 118.444 107.442 122.339 105.931 129.228C104.932 133.76 104.713 132.72 104.602 133.779C104.638 134.309 104.928 134.454 105.232 134.468C105.45 134.51 105.639 134.528 105.86 134.541C107.701 134.532 108.265 134.089 108.265 134.086C109.021 134.607 109.884 134.931 110.728 135.174C110.796 135.187 110.851 135.209 110.919 135.209C111.805 135.323 111.89 134.77 111.875 134.607C111.959 133.805 111.158 133.861 111.191 132.949C111.285 132.528 111.36 131.273 113.732 131.536ZM114.713 118.597C115.471 118.733 115.961 121.181 115.707 124.726C115.73 125.367 115.541 126.033 115.574 126.713C115.498 127.627 115.232 128.052 113.966 127.895C112.819 127.75 112.45 127.53 112.601 125.568C112.661 124.214 113.598 118.597 114.713 118.597Z" fill="#FFEBC7"/>
<path d="M61.9146 108.649C60.9761 108.324 59.9961 108.126 58.8629 108.056C58.0894 108.048 57.9444 108.073 57.747 108.017C57.5537 107.964 57.2375 107.696 57.326 107.253C57.3955 106.827 57.5143 106.394 57.5314 105.954C57.7189 104.664 57.7944 103.278 61.2853 104.323C62.1029 104.625 63.3317 105.065 64.4226 106.064C65.2926 106.796 65.5061 107.482 66.2233 107.722C66.8972 107.933 67.0703 107.17 67.162 106.621C67.3161 105.784 67.291 105.341 67.45 104.424C67.5265 104.09 67.5286 103.734 67.6585 103.405C67.7452 103.036 67.8992 102.704 67.9345 102.304C68.0222 101.931 68.0222 101.537 67.2848 101.291C66.7369 101.133 66.9776 101.254 63.8393 100.321C60.6073 99.6842 59.6374 100.215 59.6374 100.215C58.4359 99.1313 56.7903 98.2934 55.366 97.6055C53.6942 97.0566 53.0808 96.8198 52.3215 96.561C51.6253 96.3718 51.5449 96.6619 51.5036 96.8984C51.4411 97.3245 51.4744 97.7012 51.5781 99.3901C51.6002 101.211 51.5952 102.317 51.2468 104.48C50.8933 107.052 50.6456 109.521 50.2306 112.115C50.0612 114.072 49.2757 116.532 48.5396 118.016C47.7892 119.415 48.467 119.626 48.902 119.788C49.2848 119.911 49.6866 120.013 50.0371 120.14C53.9388 121.042 54.9149 120.424 54.9149 120.424C56.3449 121.618 57.6071 122.592 59.4532 123.233C64.5082 124.545 65.613 121.382 65.9424 119.468C66.0633 118.489 66.1992 117.586 66.4046 116.608C67.2899 111.022 64.3368 109.452 61.9146 108.649ZM59.9144 117.819C59.868 118.358 59.5308 119.552 57.6634 118.963C57.2777 118.846 55.7699 118.428 56.0217 116.349C56.1366 115.515 56.2393 114.737 56.3641 113.913C56.4679 112.979 56.7488 111.461 58.6525 112.044C60.6617 112.699 60.4402 114.151 60.3665 114.76C60.2558 115.788 60.0856 116.791 59.9144 117.819Z" fill="#FFEBC7"/>
<path d="M75.6926 123.609C77.7573 124.268 77.9588 125.251 77.8642 125.892C77.7091 126.892 76.9164 126.677 76.8157 127.278C76.8489 127.528 76.7179 127.998 77.4743 128.217C77.8691 128.376 78.3467 128.415 78.7676 128.521C78.837 128.542 78.9116 128.564 78.9962 128.577C80.372 128.744 80.808 128.471 80.808 128.458C81.498 129.077 82.2593 129.521 83.0419 129.924C83.182 129.986 83.3491 130.034 83.5073 130.095C84.2727 130.332 84.4066 129.875 84.4571 129.722C84.5225 129.227 84.1669 128.726 83.8647 126.475C83.5376 123.105 83.9846 120.178 84.1983 115.984C84.6483 106.02 85.7513 106.143 83.8517 105.559C83.6673 105.525 83.4609 105.454 83.2857 105.397C80.2532 104.901 79.2862 105.406 79.2862 105.406C78.1542 104.48 76.9133 103.752 75.6181 103.134C75.3271 102.997 74.9907 102.913 74.6281 102.795C73.1456 102.348 73.2009 103.071 72.507 106.02C71.6518 109.793 70.112 113.426 68.006 119.911C66.5254 124.185 66.3804 123.105 66.2596 124.127C66.0884 124.663 66.4891 124.833 66.8406 124.926C67.0411 125.019 67.2525 125.067 67.4751 125.123C69.3655 125.436 69.9388 125.101 69.9388 125.101C70.7585 125.72 71.5512 126.229 72.3368 126.628C72.3952 126.642 72.4657 126.677 72.5342 126.699C73.4395 126.957 73.5604 126.445 73.5474 126.269C73.6945 125.501 72.8585 125.436 73.0006 124.531C73.0691 124.136 73.3277 122.908 75.6926 123.609ZM77.9254 111.053C78.7161 111.347 78.8914 113.821 78.3345 117.261C78.2821 117.92 78.1088 118.538 77.9981 119.191C77.845 120.077 77.4873 120.443 76.2536 120.061C75.0913 119.736 74.8174 119.442 75.1136 117.533C75.339 116.239 76.7763 110.886 77.9254 111.053Z" fill="#FFEBC7"/>
<path d="M167.815 136.15C163.56 136.26 161.411 131.741 161.012 127.66C160.905 125.932 160.739 124.269 160.592 122.549C160.389 118.916 160.7 113.225 165.212 112.246C167.792 111.799 168.01 112.532 169.289 113.032C169.289 113.032 169.887 112.269 172.592 111.562C173.362 111.73 173.624 112.015 173.614 112.33C173.727 112.747 173.451 112.884 173.579 114.782C173.664 116.441 173.841 116.205 173.906 117.065C174 118.214 173.227 118.443 172.891 118.49C172.131 118.539 171.632 118.249 171.225 118.035C170.59 117.731 170.101 117.459 168.981 117.577C166.791 117.82 166.322 118.758 166.674 122.478C166.652 123.576 166.85 124.629 166.912 125.703C167.242 128.502 167.355 131.442 170.78 131.144C171.905 131.043 172.564 130.622 173.084 130.179C173.39 129.977 173.698 129.647 174.115 129.587C174.627 129.547 174.72 129.924 174.802 130.24C174.776 130.868 174.883 131.417 174.883 131.965C174.998 132.527 175.044 133.084 175.02 133.672C175.118 134.299 174.949 134.94 173.41 135.514C172.534 135.462 171.533 135.322 170.691 135.009C170.691 135.009 169.243 136.05 167.815 136.15Z" fill="#FFEBC7"/>
<path d="M215.186 125.186C215.186 125.186 214.918 125.564 213.938 126.147C213.013 126.464 212.856 126.608 211.978 126.836C211.667 126.951 211.146 127.03 211.003 126.507C210.91 126.13 211.138 125.721 211.299 124.835C211.395 123.379 211.174 121.721 210.984 120.756C210.7 119.43 210.427 118.167 210.177 116.833C210.06 116.613 210.078 116.324 210.088 116.073C209.971 115.915 210.078 115.692 210.003 115.509C210.012 115.411 209.957 115.288 209.754 115.332C209.462 115.438 208.908 116.004 207.399 119.251C206.65 120.698 206.015 122.225 206.247 123.629C206.458 124.27 206.756 125.253 207.234 125.827C207.82 126.59 208.301 126.845 208.364 127.254C208.463 127.543 208.253 127.929 207.637 128.131C206.726 128.385 206.926 128.293 206.056 128.495C205.421 128.525 204.867 128.503 204.271 128.416C204.271 128.416 203.989 128.824 202.939 129.43C202.293 129.657 201.787 129.85 201.185 130.044C200.951 130.105 200.389 130.373 200.254 129.75C200.157 129.351 200.407 128.964 200.389 127.819C200.444 126.951 200.359 125.529 199.747 122.836C198.943 119.356 198.192 115.999 197.434 112.476C197.12 111.124 196.844 109.931 196.044 108.896C195.553 108.426 195.383 107.966 195.228 107.57C195.134 107.088 195.768 106.962 195.937 106.912C196.741 106.681 196.608 106.75 197.424 106.588C198.063 106.536 198.903 106.508 199.678 106.649C199.678 106.649 200.067 106.118 201.509 105.398C201.904 105.25 202.293 105.083 202.742 104.955C203.403 104.776 203.604 104.916 203.685 105.145C203.787 105.601 203.328 106.21 203.207 107.009C203.014 107.966 203.153 109.229 203.344 110.229C203.53 111.251 203.743 112.247 204.025 113.314C204.238 114.143 205.548 111.586 206.037 110.655C207.355 108.4 207.923 107.469 207.689 106.179C207.574 105.666 207.399 105.408 206.976 105.114C206.609 104.771 206.287 104.643 206.209 104.417C206.114 104.013 206.587 103.833 206.93 103.754C207.149 103.678 207.403 103.656 207.608 103.57C208.533 103.481 209.566 103.416 210.431 103.555C210.431 103.555 210.797 102.915 212.804 102.082C213.132 101.967 213.486 101.875 213.839 101.779C213.994 101.713 214.491 101.595 214.552 101.924C214.518 102.296 214.552 102.653 214.449 104.131C214.348 105.359 214.449 106.776 214.848 108.431C215.499 111.528 216.111 114.507 216.713 117.619C217.08 119.386 217.483 121.054 218.143 122.331C218.701 123.142 219.04 123.73 219.171 124.229C219.153 124.428 219.227 124.7 218.53 124.901C218.004 125.055 217.567 125.152 217.219 125.253C216.449 125.283 215.853 125.296 215.186 125.186Z" fill="#FFEBC7"/>
<path d="M196.052 128.89C197.002 130.123 197.291 130.431 197.361 130.733C197.353 130.869 197.464 131.461 196.942 131.563C196.664 131.602 196.463 131.615 196.136 131.659C195.387 131.645 194.553 131.563 193.808 131.338C193.808 131.338 193.401 131.917 191.503 132.528C191.379 132.553 191.252 132.572 191.105 132.602C189.457 132.887 189.6 131.9 187.769 126.845C186.538 123.318 185.773 120.015 184.81 120.115C183.786 120.308 184.097 122.168 184.232 123.199C184.443 124.322 184.512 125.376 184.631 126.499C184.715 127.53 185.144 129.447 185.757 130.78C186.462 132.102 186.967 132.387 187.05 132.769C187.034 132.997 187.034 133.316 186.345 133.439C186.278 133.461 186.143 133.396 186.135 133.476C185.257 133.484 184.32 133.396 183.488 133.168C183.488 133.168 183.196 133.581 181.893 134.107C181.752 134.138 181.617 134.168 181.474 134.189C180.965 134.345 180.497 134.49 179.901 134.59C179.639 134.611 179.268 134.59 179.216 133.835C179 132.923 179.188 132.084 178.932 129.785C178.334 125.288 177.824 121.002 177.206 116.486C176.793 112.823 176.106 113.796 175.816 111.722C175.707 111.011 176.42 110.856 176.759 110.8C177.035 110.769 177.278 110.743 177.54 110.703C177.623 110.686 177.709 110.672 177.802 110.672C178.571 110.699 179.305 110.8 179.891 110.984C179.891 110.984 180.223 110.567 181.545 110.037C181.674 110.014 181.816 109.983 181.931 109.949C182.264 109.844 182.572 109.804 182.912 109.761C183.162 109.699 183.688 109.677 183.77 110.155C183.849 111.494 182.814 111.586 183.001 113.34C183.215 114.451 183.885 114.973 185.279 114.761C186.84 114.463 187.05 113.353 186.993 112.66C187.006 112.208 186.659 111.612 185.573 110.686C184.953 110.081 185.017 109.396 186.165 109.195C186.431 109.133 186.663 109.119 187.011 109.081C187.658 109.133 188.514 109.19 189.199 109.392C189.199 109.392 189.566 108.896 191.155 108.348C191.379 108.294 191.584 108.255 191.81 108.238C192.45 108.119 193.212 108.208 193.413 109.761C193.685 111.854 192.66 113.068 191.276 115.17C190.722 115.89 190.494 116.399 190.539 117.215C190.73 118.54 192.098 121.958 192.623 123.12C193.526 125.296 194.797 127.039 196.052 128.89Z" fill="#FFEBC7"/>
<path d="M231.552 93.9727C231.673 94.0865 231.705 94.2284 231.776 94.3714C231.907 95.4431 229.642 96.9388 226.641 97.7686C223.521 98.5966 221.14 98.3598 220.836 97.2903C220.86 97.1271 220.828 96.9388 220.935 96.7725C222.663 96.4784 224.752 96.3113 226.583 96.6275C226.583 96.6275 227.352 95.4431 231.552 93.9727ZM236.497 119.381C236.497 119.381 236.201 119.759 235.184 120.312C234.13 120.623 233.995 120.781 233.196 120.987C232.865 121.088 232.352 121.167 232.227 120.636C232.142 120.272 232.41 119.851 232.598 118.987C232.746 117.508 232.626 115.849 232.481 114.897C232.233 113.568 232.048 112.282 231.834 110.949C231.862 110.703 231.764 110.427 231.79 110.203C231.691 110.023 231.79 109.803 231.731 109.623C231.731 109.522 231.677 109.391 231.473 109.443C231.199 109.554 230.641 110.12 228.923 113.339C228.253 114.78 227.364 116.279 227.556 117.7C227.745 118.346 228.007 119.346 228.454 119.921C229.016 120.672 229.481 120.949 229.54 121.351C229.614 121.646 229.463 122.022 228.766 122.225C227.981 122.439 227.94 122.387 227.143 122.571C226.504 122.61 225.94 122.558 225.356 122.475C225.356 122.475 225.132 122.878 223.954 123.465C223.315 123.708 222.784 123.887 222.181 124.063C221.954 124.112 221.367 124.371 221.251 123.761C221.162 123.365 221.356 122.988 221.474 121.826C221.551 120.949 221.502 119.521 221.051 116.832C220.471 113.339 219.818 109.969 219.166 106.437C218.882 105.052 218.694 103.876 217.903 102.836C217.562 102.366 217.21 101.923 217.147 101.52C217.067 101.046 217.72 100.888 217.895 100.853C218.702 100.62 218.674 100.709 219.408 100.558C220.197 100.497 220.993 100.497 221.69 100.62C221.69 100.62 222.028 100.11 223.599 99.3963C224.002 99.224 224.417 99.0931 224.864 98.9753C225.547 98.803 225.825 98.9359 225.805 99.1675C225.886 99.6681 225.408 100.221 225.235 101.028C224.879 101.967 225.07 103.253 225.235 104.266C225.408 105.311 225.624 106.311 225.783 107.351C225.984 108.224 227.433 105.644 227.95 104.714C229.352 102.459 230.027 101.546 229.808 100.26C229.731 99.7426 229.566 99.5019 229.147 99.1898C228.78 98.8171 228.476 98.6983 228.402 98.4827C228.319 98.0708 228.807 97.8996 229.173 97.8161C229.391 97.7686 229.642 97.6942 229.856 97.6457C230.791 97.5491 231.757 97.5139 232.714 97.6628C232.714 97.6628 233.222 97.0405 235.188 96.2247C235.536 96.1492 235.893 96.0312 236.264 95.9295C236.437 95.8862 236.93 95.7542 236.983 96.0797C237.067 96.4421 236.934 96.8208 236.769 98.2903C236.63 99.5019 236.711 100.944 236.96 102.594C237.39 105.714 237.903 108.676 238.403 111.814C238.582 113.59 238.991 115.257 239.607 116.555C240.161 117.372 240.451 117.986 240.56 118.46C240.528 118.671 240.514 118.96 239.877 119.136C239.358 119.29 238.975 119.355 238.542 119.457C237.897 119.487 237.081 119.487 236.497 119.381Z" fill="#FFEBC7"/>
<path d="M254.836 134.821C254.836 134.821 250.827 137.993 244.655 136.664C239.488 135.536 232.97 133.132 227.531 136.537C227.531 136.537 233.417 135.058 239.498 137.199C244.409 138.928 251.176 139.92 254.836 134.821Z" fill="#FFEBC7"/>
<path d="M113.461 94.2188C114.089 94.2932 115.002 94.3718 116.023 94.3718C117.043 94.3718 118.136 94.2672 118.729 94.2188C118.557 94.6529 118.404 95.1183 118.235 95.6358C117.11 95.5925 116.639 95.5533 116.013 95.5533C115.548 95.5533 114.751 95.5533 112.938 95.6358C113.124 95.2018 113.302 94.7284 113.461 94.2188Z" fill="#892101"/>
<path d="M122.844 91.1612C124.667 90.6525 126.974 89.4409 128.058 88.5898H128.262C127.907 90.7482 127.929 95.6401 127.929 96.7158C127.929 98.4832 127.929 98.9707 128.114 99.414C128.496 100.261 129.122 100.199 129.631 100.199H130.02V100.844H129.577C128.856 100.844 128.529 100.814 128.058 100.726C127.663 100.66 127.297 100.612 126.76 100.612C126.29 100.612 125.836 100.66 125.363 100.726C124.984 100.779 124.607 100.844 124.215 100.844H123.459V100.199H124.164C124.715 100.199 125.215 100.164 125.487 99.414C125.665 98.9707 125.684 98.3785 125.684 94.8948C125.684 92.5481 125.592 93.4254 125.607 92.0122C125.607 91.7272 125.633 91.3274 125.281 91.2004C125.157 91.1472 124.984 91.1612 124.838 91.2004C124.109 91.3586 123.811 91.57 122.844 92.0525L122.844 91.1612Z" fill="#892101"/>
<path d="M137.141 93.942C135.366 92.9822 134.685 92.0526 134.685 91.3195C134.685 90.4381 135.257 89.5549 136.621 89.5549C138.052 89.5549 138.736 90.5338 138.736 91.5259C138.736 92.3981 138.129 93.3508 137.141 93.942ZM135.257 94.6975C134.175 95.0833 132.078 96.0833 132.078 97.9667C132.078 99.7041 133.648 101.125 136.36 101.125C139.359 101.125 140.9 99.3827 140.9 97.72C140.9 96.0007 139.365 94.9915 137.773 94.2934C139.116 93.6662 140.39 92.8987 140.39 91.403C140.39 90.2578 139.473 88.875 136.778 88.875C134.099 88.875 132.444 90.0775 132.444 91.5259C132.444 93.0961 133.834 94.0006 135.257 94.6975ZM136.07 95.0137C138.027 96.049 138.637 97.3695 138.637 98.4099C138.637 99.4141 137.689 100.467 136.305 100.467C135.061 100.467 133.675 99.6335 133.675 98.1368C133.675 96.2415 135.732 95.194 136.07 95.0137Z" fill="#892101"/>
<path d="M145.463 94.5265C145.463 94.1792 145.463 93.8246 145.495 93.4771C145.812 90.0196 147.295 89.524 148.215 89.524C149.81 89.524 150.874 91.8797 150.874 95.698C150.874 99.7035 149.548 100.541 148.483 100.541C147.318 100.541 145.463 98.9219 145.463 94.5265ZM143.031 94.9698C143.031 99.089 145.634 101.242 148.215 101.242C150.855 101.242 153.302 99.207 153.302 95.0565C153.302 91.5253 151.14 88.8965 148.231 88.8965C145.93 88.8965 143.031 90.5815 143.031 94.9698Z" fill="#892101"/>
<path d="M160.833 90.6525C160.698 91.4592 160.602 92.3678 160.602 95.6622V96.0006C159.203 95.9693 158.692 95.9522 158.1 95.9522C157.646 95.9522 157.205 96.0006 156.75 96.0006H156.331C156.946 94.9169 159.582 91.7754 160.713 90.6525H160.833ZM164.784 100.844V100.199H164.27C163.533 100.199 162.926 100.354 162.804 97.8257C162.804 97.6595 162.792 97.4711 162.792 97.2989H164.476C164.618 96.7993 164.784 96.2777 164.995 95.7205C164.492 95.8647 163.916 95.9874 162.792 96.0007V95.4779C162.792 91.6486 162.888 90.3052 163.074 89.0059C162.693 88.9102 162.318 88.7742 161.938 88.5898C160.039 90.3052 159.017 91.5258 157.832 92.9338C155.777 95.3913 155.331 95.913 154.68 96.8214V97.2989C155.834 97.2504 156.861 97.2122 157.984 97.2122C159.105 97.2122 159.769 97.2424 160.63 97.2989V97.7419C160.63 100.353 160.023 100.199 158.988 100.199H158.612V100.844H159.543C159.876 100.844 160.228 100.814 160.566 100.765C160.981 100.709 161.383 100.66 161.803 100.66C162.12 100.66 162.425 100.709 162.759 100.743C163.192 100.792 163.605 100.844 164.046 100.844L164.784 100.844Z" fill="#892101"/>
<path d="M167.588 94.2188C168.211 94.2932 169.145 94.3718 170.158 94.3718C171.161 94.3718 172.263 94.2672 172.854 94.2188C172.684 94.6529 172.533 95.1183 172.366 95.6358C171.232 95.5925 170.769 95.5533 170.134 95.5533C169.683 95.5533 168.881 95.5533 167.07 95.6358C167.256 95.2018 167.447 94.7284 167.588 94.2188Z" fill="#892101"/>
</svg>
